<svg width="287" height="88" viewBox="0 0 287 88" fill="none" xmlns="http://www.w3.org/2000/svg">
<g clip-path="url(#clip0_132_1873)">
<path d="M44.8755 0H46.4948V20.1351H47.4239V3.35807H49.0432V20.1351H49.9723V6.71614H51.5916V33.5674H78.4429V40.2836H44.8755V0ZM53.2109 0V6.71614H71.7135V16.7771H58.4538V23.4932H78.4429V0H53.2242H53.2109Z" fill="#D2AB67"/>
<path d="M107.604 63.856H120.174V54.6047H104.459V51.459H123.319V67.0017H104.459V57.6575H117.028V60.8032H107.604V63.856ZM23.2145 57.7637H29.121V60.9094H23.2145V57.7637ZM33.6471 67.0017V51.459H36.7928V67.0017H33.6471ZM58.7994 51.459V67.0017H55.6537V54.6047H43.0842V67.0017H39.9385V51.459H58.7994ZM65.0908 57.6575H80.0495V60.8032H65.0908V67.0017H61.9451V51.459H80.0495V54.6047H65.0908V57.6575ZM101.3 51.459V54.6047H86.3409V67.0017H83.1952V51.459H101.3ZM18.8609 51.459V60.8032H6.2914V57.6575H15.7152V54.6047H3.1457V63.856H18.8609V67.0017H0V51.459H18.8609Z" fill="white"/>
<path d="M18.6091 77.8862H16.0607V82.0406H18.41V82.9034H16.0607V87.9604H15.0918V77.0234H18.6091V77.8862Z" fill="white"/>
<path d="M22.8164 87.1512V81.988H20.7724V87.1512H22.8164ZM23.7455 87.1512C23.7455 87.6954 23.4668 87.9608 22.9359 87.9608H20.6529C20.122 87.9608 19.8433 87.6954 19.8433 87.1512V81.9747C19.8433 81.4305 20.122 81.165 20.6529 81.165H22.9359C23.4668 81.165 23.7455 81.4305 23.7455 81.9747V87.1512Z" fill="white"/>
<path d="M29.161 87.9608H28.2452V87.775C27.8868 87.8281 27.5152 87.8812 27.1568 87.921C26.7188 87.9741 26.3604 88.0006 26.0684 88.0006C25.5242 88.0006 25.2588 87.7219 25.2588 87.191V81.165H26.1746V87.1379L28.2319 87.0715V81.165H29.1478V87.9608H29.161Z" fill="white"/>
<path d="M34.5766 87.9602H33.6475V81.9873L31.6034 82.0537V87.9602H30.6743V81.1644H31.6034V81.3502C31.9618 81.2972 32.3334 81.2573 32.7051 81.2042C33.1431 81.1511 33.5147 81.1113 33.8067 81.1113C34.3244 81.1113 34.5766 81.3768 34.5766 81.921V87.9469V87.9602Z" fill="white"/>
<path d="M39.0362 87.1234V81.9867H37.7487C37.2311 81.9867 36.9789 82.2522 36.9789 82.7831V86.4199C36.9789 86.9376 37.2311 87.203 37.7487 87.203C37.8682 87.203 38.3062 87.1765 39.0362 87.1367M39.9521 87.9596H39.0362V87.7738C38.0408 87.9198 37.4966 87.9994 37.3904 87.9994C36.9922 87.9994 36.6736 87.8667 36.4214 87.5879C36.1825 87.3225 36.0498 86.9774 36.0498 86.5792V82.6238C36.0498 82.1991 36.1825 81.854 36.4613 81.562C36.74 81.2833 37.0851 81.1373 37.5098 81.1373H39.023V76.9961H39.9388V87.933L39.9521 87.9596Z" fill="white"/>
<path d="M44.4386 87.1246V84.7222H42.368V87.1777L44.4386 87.1379V87.1246ZM45.3279 87.9608H44.412V87.775C44.0404 87.8281 43.682 87.8679 43.3104 87.921C42.8591 87.9741 42.4874 88.0006 42.2087 88.0006C41.7043 88.0006 41.4521 87.7352 41.4521 87.191V84.7886C41.4521 84.2576 41.7043 83.9789 42.1954 83.9789H44.4253V81.9349H42.4211V83.0763H41.5185V81.9481C41.5185 81.4305 41.7707 81.165 42.2618 81.165H44.5182C45.0624 81.165 45.3279 81.4305 45.3279 81.9614V87.9608Z" fill="white"/>
<path d="M49.2959 87.9595H48.0085C47.4643 87.9595 47.1988 87.694 47.1988 87.1498V81.9734H46.3892V81.1637H47.1988V79.04H48.1146V81.1637H49.3092V81.9734H48.1146V87.1366H49.3092V87.9462L49.2959 87.9595Z" fill="white"/>
<path d="M51.4599 87.9603H50.544V81.1645H51.4599V87.9603ZM51.4731 79.678H50.5308V78.4834H51.4731V79.678Z" fill="white"/>
<path d="M56.0122 87.1512V81.988H53.9682V87.1512H56.0122ZM56.9413 87.1512C56.9413 87.6954 56.6626 87.9608 56.1317 87.9608H53.8487C53.3178 87.9608 53.0391 87.6954 53.0391 87.1512V81.9747C53.0391 81.4305 53.3178 81.165 53.8487 81.165H56.1317C56.6626 81.165 56.9413 81.4305 56.9413 81.9747V87.1512Z" fill="white"/>
<path d="M62.3696 87.9602H61.4404V81.9873L59.3964 82.0537V87.9602H58.4673V81.1644H59.3964V81.3502C59.7548 81.2972 60.1264 81.2573 60.4981 81.2042C60.9361 81.1511 61.3077 81.1113 61.5997 81.1113C62.1174 81.1113 62.3696 81.3768 62.3696 81.921V87.9469V87.9602Z" fill="white"/>
<path d="M69.6572 87.1512V81.988H67.6132V87.1512H69.6572ZM70.5863 87.1512C70.5863 87.6954 70.3076 87.9608 69.7767 87.9608H67.4937C66.9628 87.9608 66.6841 87.6954 66.6841 87.1512V81.9747C66.6841 81.4305 66.9628 81.165 67.4937 81.165H69.7767C70.3076 81.165 70.5863 81.4305 70.5863 81.9747V87.1512Z" fill="white"/>
<path d="M76.0146 87.9602H75.0855V81.9873L73.0414 82.0537V87.9602H72.1123V81.1644H73.0414V81.3502C73.3998 81.2972 73.7714 81.2573 74.1431 81.2042C74.5811 81.1511 74.9527 81.1113 75.2447 81.1113C75.7624 81.1113 76.0146 81.3768 76.0146 81.921V87.9469V87.9602Z" fill="white"/>
<path d="M84.6951 77.0234L82.8104 87.9869H81.8945L80.0098 77.0234H80.9654L82.3193 85.7305C82.3193 85.7305 82.3193 85.9694 82.3591 86.4473C82.3591 86.288 82.3856 86.0491 82.4122 85.7305L83.766 77.0234H84.6951Z" fill="white"/>
<path d="M88.8496 87.1246V84.7222H86.779V87.1777L88.8496 87.1379V87.1246ZM89.7522 87.9608H88.8363V87.775C88.4647 87.8281 88.1063 87.8679 87.7347 87.921C87.2834 87.9741 86.9118 88.0006 86.633 88.0006C86.1287 88.0006 85.8765 87.7352 85.8765 87.191V84.7886C85.8765 84.2576 86.1287 83.9789 86.6198 83.9789H88.8496V81.9349H86.8454V83.0763H85.9428V81.9481C85.9428 81.4305 86.195 81.165 86.6861 81.165H88.9425C89.4867 81.165 89.7522 81.4305 89.7522 81.9614V87.9608Z" fill="white"/>
<path d="M92.2469 77.0234H91.3311V87.9604H92.2469V77.0234Z" fill="white"/>
<path d="M97.7153 87.9608H96.7994V87.775C96.441 87.8281 96.0694 87.8812 95.711 87.921C95.273 87.9741 94.9146 88.0006 94.6226 88.0006C94.0784 88.0006 93.813 87.7219 93.813 87.191V81.165H94.7288V87.1379L96.7861 87.0715V81.165H97.702V87.9608H97.7153Z" fill="white"/>
<path d="M102.135 83.9789V81.9349H100.131V83.9789H102.135ZM103.038 87.1644C103.038 87.6954 102.759 87.9608 102.228 87.9608H100.038C99.5072 87.9608 99.2285 87.6954 99.2285 87.1512V81.9747C99.2285 81.4305 99.5072 81.165 100.038 81.165H102.228C102.759 81.165 103.038 81.4305 103.038 81.9747V84.4036L102.719 84.7355H100.131V87.2042H102.135V85.9433H103.038V87.1777V87.1644Z" fill="white"/>
<path d="M108.241 87.1498C108.241 87.6807 107.976 87.9594 107.432 87.9594H105.348C104.804 87.9594 104.538 87.6807 104.538 87.1498V85.6367H105.454V87.1498H107.325V85.7959L104.896 83.805C104.671 83.6192 104.551 83.3803 104.551 83.075V81.96C104.551 81.4291 104.817 81.1504 105.361 81.1504H107.418C107.963 81.1504 108.228 81.4291 108.228 81.96V83.2873H107.325V81.96H105.454V83.1546L107.909 85.1456C108.135 85.3314 108.255 85.5703 108.255 85.8889V87.1498H108.241Z" fill="white"/>
<path d="M275.189 66.7902V62.6756H276.025L276.861 64.8922C276.888 64.9585 276.914 65.078 276.967 65.224C277.007 65.37 277.06 65.5425 277.113 65.7416C277.074 65.4496 277.034 65.1842 277.02 64.9452C276.994 64.7063 276.994 64.4807 276.994 64.2683V62.6888H277.75V66.8035H276.994L276.091 64.494C276.091 64.494 276.038 64.3214 275.972 64.0692C275.945 63.963 275.919 63.8701 275.906 63.8038C275.919 63.963 275.945 64.1489 275.945 64.348C275.945 64.5471 275.959 64.786 275.959 65.0647V66.7902H275.202H275.189ZM274.273 64.7992C274.273 65.4231 274.14 65.9274 273.875 66.2991C273.609 66.6707 273.264 66.8566 272.826 66.8566C272.388 66.8566 272.017 66.6707 271.764 66.2991C271.512 65.9274 271.379 65.4098 271.379 64.7461C271.379 64.0825 271.512 63.5649 271.764 63.1932C272.017 62.8216 272.375 62.6357 272.826 62.6357C273.277 62.6357 273.636 62.8348 273.888 63.2065C274.14 63.5914 274.273 64.1223 274.273 64.7992ZM272.826 66.0602C273.039 66.0602 273.198 65.954 273.291 65.7284C273.397 65.5027 273.45 65.1709 273.45 64.7329C273.45 64.2949 273.397 63.9498 273.291 63.7374C273.185 63.5118 273.025 63.4056 272.826 63.4056C272.627 63.4056 272.455 63.5118 272.348 63.7374C272.242 63.963 272.189 64.2949 272.189 64.7329C272.189 65.1709 272.242 65.516 272.348 65.7284C272.455 65.9407 272.614 66.0602 272.826 66.0602ZM269.574 66.7902V62.6756H270.411V66.7902H269.574ZM267.265 66.7902V63.4321H266.641V62.6756H268.725V63.4321H268.101V66.7902H267.278H267.265ZM265.845 62.6756V65.2638C265.845 65.5823 265.845 65.808 265.818 65.9407C265.792 66.0735 265.765 66.1796 265.725 66.2725C265.619 66.4716 265.486 66.6176 265.287 66.7106C265.101 66.8035 264.849 66.8566 264.557 66.8566C264.265 66.8566 264.013 66.8167 263.827 66.7106C263.641 66.6176 263.495 66.4716 263.389 66.2725C263.349 66.1796 263.309 66.0735 263.296 65.9407C263.283 65.808 263.27 65.5824 263.27 65.2771V62.6888H264.093V65.3434C264.093 65.6753 264.132 65.9009 264.199 65.9938C264.265 66.0867 264.385 66.1398 264.557 66.1398C264.73 66.1398 264.862 66.0867 264.929 65.9938C264.995 65.9009 265.022 65.6753 265.022 65.3434V62.6888H265.831L265.845 62.6756ZM260.814 66.7902V62.6756H261.624V65.9938H262.566V66.8035H260.814V66.7902ZM259.885 64.7992C259.885 65.4231 259.752 65.9274 259.487 66.2991C259.221 66.6707 258.876 66.8566 258.425 66.8566C257.974 66.8566 257.615 66.6707 257.363 66.2991C257.111 65.9274 256.978 65.4098 256.978 64.7461C256.978 64.0825 257.111 63.5649 257.363 63.1932C257.615 62.8216 257.974 62.6357 258.425 62.6357C258.876 62.6357 259.235 62.8348 259.487 63.2065C259.739 63.5781 259.872 64.1223 259.872 64.7992H259.885ZM258.438 66.0602C258.651 66.0602 258.81 65.954 258.916 65.7284C259.022 65.5027 259.075 65.1709 259.075 64.7329C259.075 64.2949 259.022 63.9498 258.916 63.7374C258.81 63.5118 258.651 63.4056 258.438 63.4056C258.226 63.4056 258.067 63.5118 257.96 63.7374C257.854 63.963 257.801 64.2949 257.801 64.7329C257.801 65.1709 257.854 65.516 257.96 65.7284C258.067 65.9407 258.226 66.0602 258.438 66.0602ZM254.655 66.7902L253.487 62.6756H254.324L254.815 64.5338C254.868 64.7196 254.908 64.9187 254.934 65.1178C254.961 65.3302 254.987 65.5425 255.014 65.7682C255.027 65.5558 255.054 65.3434 255.08 65.1443C255.107 64.9452 255.147 64.7462 255.2 64.5471L255.677 62.6623H256.527L255.359 66.7769H254.669L254.655 66.7902ZM251.218 66.7902V62.6756H252.943V63.4321H252.001V64.2683H252.85V65.0249H252.001V65.9938H252.943V66.8035H251.218V66.7902ZM248.152 66.7902V62.6756H249.001C249.466 62.6756 249.811 62.7685 250.023 62.9543C250.236 63.1401 250.342 63.4321 250.342 63.8303C250.342 64.1223 250.289 64.3612 250.182 64.5338C250.076 64.7063 249.917 64.8391 249.691 64.9054L250.488 66.7769H249.625L248.948 65.078V66.7769H248.152V66.7902ZM248.948 64.4674C248.948 64.4674 248.975 64.4674 249.001 64.4674C249.028 64.4674 249.041 64.4674 249.054 64.4674C249.227 64.4674 249.373 64.4143 249.452 64.3214C249.545 64.2152 249.585 64.0825 249.585 63.8834C249.585 63.6843 249.545 63.5383 249.466 63.4454C249.386 63.3525 249.253 63.3127 249.068 63.3127C249.041 63.3127 249.014 63.3127 249.001 63.3127C248.988 63.3127 248.975 63.3127 248.961 63.3127V64.4541L248.948 64.4674ZM243.134 66.7902V62.6756H244.86V63.4321H243.918V64.2683H244.767V65.0249H243.918V65.9938H244.86V66.8035H243.134V66.7902ZM239.524 66.7902V62.6756H240.334V64.202H241.25V62.6756H242.073V66.7902H241.25V64.9983H240.334V66.7902H239.524ZM237.241 66.7902V63.4321H236.617V62.6756H238.701V63.4321H238.077V66.7902H237.255H237.241ZM230.923 66.7902V62.6756H231.76L232.596 64.8922C232.622 64.9585 232.649 65.078 232.702 65.224C232.742 65.37 232.795 65.5425 232.848 65.7416C232.808 65.4496 232.768 65.1842 232.755 64.9452C232.728 64.7063 232.728 64.4807 232.728 64.2683V62.6888H233.485V66.8035H232.728L231.826 64.494C231.826 64.494 231.773 64.3214 231.706 64.0692C231.68 63.963 231.653 63.8701 231.64 63.8038C231.667 63.963 231.667 64.1489 231.68 64.348C231.68 64.5471 231.693 64.786 231.693 65.0647V66.7902H230.937H230.923ZM228.985 66.7902V62.6756H229.822V66.7902H228.985ZM228.03 64.7992C228.03 65.4231 227.897 65.9274 227.632 66.2991C227.366 66.6707 227.021 66.8566 226.583 66.8566C226.145 66.8566 225.773 66.6707 225.521 66.2991C225.269 65.9274 225.136 65.4098 225.136 64.7461C225.136 64.0825 225.269 63.5649 225.521 63.1932C225.773 62.8216 226.132 62.6357 226.583 62.6357C227.034 62.6357 227.393 62.8348 227.645 63.2065C227.897 63.5914 228.03 64.1223 228.03 64.7992ZM226.583 66.0602C226.795 66.0602 226.955 65.954 227.048 65.7284C227.154 65.5027 227.207 65.1709 227.207 64.7329C227.207 64.2949 227.154 63.9498 227.048 63.7374C226.941 63.5118 226.782 63.4056 226.583 63.4056C226.384 63.4056 226.211 63.5118 226.119 63.7374C226.012 63.963 225.959 64.2949 225.959 64.7329C225.959 65.1709 226.012 65.516 226.119 65.7284C226.225 65.9407 226.384 66.0602 226.583 66.0602ZM222.734 66.7504V66.0071C222.734 66.0071 222.853 66.0602 222.906 66.0867C222.96 66.1 222.999 66.1133 223.052 66.1133C223.185 66.1133 223.278 66.0602 223.331 65.9673C223.384 65.8611 223.411 65.6089 223.411 65.1974V62.6888H224.247V65.5558C224.247 65.8345 224.234 66.0336 224.207 66.1664C224.181 66.2991 224.128 66.4053 224.061 66.4982C223.968 66.6176 223.862 66.7106 223.716 66.7636C223.583 66.83 223.424 66.8566 223.252 66.8566C223.159 66.8566 223.066 66.8566 222.973 66.83C222.893 66.8167 222.814 66.7902 222.747 66.7636L222.734 66.7504Z" fill="white"/>
<path d="M211.067 22.3649V54.897L182.888 71.1697V60.4319L201.762 49.5348V27.7405L211.067 22.3782V22.3649ZM192.179 33.2621V43.9999L182.875 49.3622V38.6376L192.179 33.2621ZM182.888 16.8301V27.8865L173.584 33.2621V43.9999L164 49.5348V27.7405L182.875 16.8434L182.888 16.8301Z" fill="white"/>
<path d="M222.748 32.6245H231.641V56.6619H222.748V32.6245ZM222.748 21.6875H231.641V30.4875H222.748V21.6875ZM236.433 32.6245H245.126V34.4163H245.179C247.502 32.6245 249.095 32.6112 252.599 32.6245C253.701 32.6245 254.404 32.6245 255.307 32.6245V39.8184C254.271 39.8582 253.289 39.8582 251.404 39.8184C248.697 39.7653 245.272 40.7077 245.272 44.6631V56.6619H236.433V32.6245ZM270.239 48.1273V46.7071H267.943C266.084 46.7071 264.704 47.238 264.704 49.1095C264.704 50.397 265.341 51.419 267.226 51.419C268.885 51.419 270.226 50.2244 270.226 48.1273H270.239ZM257.298 50.3439C257.298 44.3047 263.217 42.5261 267.518 42.5261H270.239V40.8404C270.239 39.1946 269.257 38.1327 267.319 38.1327C265.222 38.1327 264.518 39.4202 264.518 40.575V41.1457H258.001V40.2166C258.001 35.1065 262.62 32.4917 267.823 32.4917C272.761 32.4917 277.566 34.841 277.566 40.9334V51.3792C277.552 53.7285 277.552 54.8965 277.566 56.6619H270.584C270.557 56.2106 270.557 56.2238 270.584 53.7683C268.885 56.6619 265.925 57.1928 264.067 57.1928C260.204 57.1928 257.284 54.7904 257.284 50.3572L257.298 50.3439Z" fill="white"/>
<path d="M282.251 25.9088V21.25H283.18L284.282 24.555C284.388 24.8603 284.454 25.0859 284.507 25.2452C284.56 25.0726 284.64 24.8204 284.759 24.5019L285.874 21.25H286.71V25.9088H286.113V22.0066L284.759 25.9088H284.202L282.848 21.9402V25.9088H282.251ZM279.477 25.9088V21.7942H277.937V21.25H281.64V21.7942H280.101V25.9088H279.49H279.477Z" fill="white"/>
<path d="M142.287 0V87.9602" stroke="#939598" stroke-width="0.66365" stroke-miterlimit="22.93"/>
</g>
<defs>
<clipPath id="clip0_132_1873">
<rect width="286.697" height="88" fill="white"/>
</clipPath>
</defs>
</svg>
