<svg width="324" height="51" viewBox="0 0 324 51" fill="none" xmlns="http://www.w3.org/2000/svg">
<g clip-path="url(#clip0_145_5)">
<path d="M312.64 46.87V43.01H313.42L314.2 45.09C314.23 45.16 314.26 45.26 314.3 45.4C314.33 45.54 314.37 45.7 314.43 45.89C314.39 45.62 314.36 45.37 314.34 45.14C314.33 44.91 314.31 44.7 314.31 44.5V43.02H315.03V46.88H314.31L313.47 44.72C313.47 44.72 313.41 44.56 313.35 44.33C313.32 44.23 313.31 44.14 313.29 44.08C313.3 44.23 313.32 44.4 313.32 44.59C313.33 44.78 313.33 45 313.33 45.26V46.88H312.63L312.64 46.87ZM311.78 44.99C311.78 45.58 311.66 46.04 311.42 46.39C311.17 46.74 310.84 46.91 310.43 46.91C310 46.91 309.67 46.74 309.43 46.39C309.19 46.04 309.07 45.56 309.07 44.94C309.07 44.32 309.19 43.84 309.43 43.49C309.68 43.14 310.01 42.96 310.43 42.96C310.85 42.96 311.18 43.14 311.42 43.5C311.66 43.86 311.78 44.36 311.78 45V44.99ZM310.43 46.18C310.62 46.18 310.77 46.08 310.86 45.87C310.96 45.66 311.01 45.35 311.01 44.94C311.01 44.53 310.97 44.21 310.86 44C310.77 43.79 310.62 43.69 310.43 43.69C310.22 43.69 310.09 43.79 309.98 44C309.89 44.21 309.85 44.52 309.85 44.94C309.85 45.36 309.89 45.67 309.98 45.87C310.08 46.08 310.22 46.18 310.43 46.18ZM307.39 46.87V43.01H308.17V46.87H307.39ZM305.22 46.87V43.73H304.64V43.02H306.59V43.73H306.01V46.87H305.23H305.22ZM303.89 43.01V45.43C303.89 45.73 303.89 45.94 303.88 46.06C303.85 46.18 303.82 46.29 303.79 46.37C303.69 46.56 303.55 46.69 303.39 46.78C303.21 46.87 302.99 46.91 302.7 46.91C302.41 46.91 302.19 46.87 302.01 46.78C301.83 46.69 301.7 46.56 301.61 46.37C301.57 46.29 301.54 46.18 301.52 46.06C301.51 45.93 301.49 45.73 301.49 45.43V43.01H302.27V45.49C302.27 45.8 302.3 46.01 302.36 46.1C302.42 46.19 302.54 46.24 302.7 46.24C302.86 46.24 302.98 46.19 303.04 46.1C303.1 46.01 303.13 45.81 303.13 45.49V43.01H303.89ZM299.17 46.87V43.01H299.93V46.11H300.81V46.86H299.16L299.17 46.87ZM298.32 44.99C298.32 45.58 298.19 46.04 297.95 46.39C297.71 46.74 297.38 46.91 296.96 46.91C296.54 46.91 296.2 46.74 295.97 46.39C295.73 46.04 295.61 45.56 295.61 44.94C295.61 44.32 295.73 43.84 295.97 43.49C296.21 43.14 296.54 42.96 296.96 42.96C297.38 42.96 297.71 43.14 297.96 43.5C298.2 43.86 298.32 44.36 298.32 45V44.99ZM296.95 46.18C297.14 46.18 297.29 46.08 297.4 45.87C297.49 45.66 297.53 45.35 297.53 44.94C297.53 44.53 297.49 44.21 297.4 44C297.3 43.79 297.15 43.69 296.95 43.69C296.75 43.69 296.61 43.79 296.52 44C296.42 44.21 296.37 44.52 296.37 44.94C296.37 45.36 296.41 45.67 296.52 45.87C296.61 46.08 296.76 46.18 296.95 46.18ZM293.4 46.87L292.31 43.01H293.09L293.54 44.76C293.58 44.93 293.63 45.11 293.66 45.31C293.69 45.5 293.7 45.71 293.73 45.92C293.73 45.72 293.76 45.53 293.79 45.34C293.82 45.15 293.85 44.96 293.89 44.78L294.34 43.02H295.13L294.04 46.88H293.4V46.87ZM290.18 46.87V43.01H291.8V43.72H290.93V44.5H291.72V45.21H290.93V46.11H291.8V46.86H290.18V46.87ZM287.31 46.87V43.01H288.12C288.55 43.01 288.87 43.1 289.08 43.27C289.27 43.44 289.38 43.72 289.38 44.1C289.38 44.37 289.32 44.6 289.22 44.76C289.13 44.93 288.97 45.04 288.77 45.11L289.5 46.87H288.69L288.06 45.28V46.87H287.31ZM288.06 44.68C288.06 44.68 288.09 44.68 288.1 44.68C288.11 44.68 288.13 44.68 288.14 44.68C288.3 44.68 288.42 44.63 288.51 44.54C288.6 44.45 288.64 44.31 288.64 44.13C288.64 43.95 288.6 43.81 288.52 43.73C288.45 43.65 288.31 43.6 288.15 43.6C288.12 43.6 288.11 43.6 288.09 43.6C288.08 43.6 288.06 43.6 288.05 43.6V44.67L288.06 44.68ZM282.61 46.87V43.01H284.24V43.72H283.36V44.5H284.15V45.21H283.36V46.11H284.24V46.86H282.61V46.87ZM279.24 46.87V43.01H280V44.44H280.85V43.01H281.61V46.87H280.85V45.19H280V46.87H279.24ZM277.1 46.87V43.73H276.52V43.02H278.47V43.73H277.89V46.87H277.11H277.1ZM271.18 46.87V43.01H271.96L272.74 45.09C272.77 45.16 272.8 45.26 272.84 45.4C272.87 45.54 272.91 45.7 272.97 45.89C272.93 45.62 272.9 45.37 272.88 45.14C272.87 44.91 272.85 44.7 272.85 44.5V43.02H273.57V46.88H272.85L272.01 44.72C272.01 44.72 271.95 44.56 271.89 44.33C271.86 44.23 271.85 44.14 271.83 44.08C271.84 44.23 271.86 44.4 271.86 44.59C271.87 44.78 271.87 45 271.87 45.26V46.88H271.17L271.18 46.87ZM269.37 46.87V43.01H270.15V46.87H269.37ZM268.47 44.99C268.47 45.58 268.35 46.04 268.1 46.39C267.86 46.74 267.53 46.91 267.11 46.91C266.69 46.91 266.36 46.74 266.12 46.39C265.88 46.04 265.76 45.56 265.76 44.94C265.76 44.32 265.88 43.84 266.12 43.49C266.36 43.14 266.69 42.96 267.11 42.96C267.53 42.96 267.87 43.14 268.11 43.5C268.35 43.86 268.47 44.36 268.47 45V44.99ZM267.11 46.18C267.3 46.18 267.45 46.08 267.56 45.87C267.65 45.66 267.71 45.35 267.71 44.94C267.71 44.53 267.65 44.21 267.56 44C267.46 43.79 267.31 43.69 267.11 43.69C266.91 43.69 266.77 43.79 266.68 44C266.58 44.21 266.53 44.52 266.53 44.94C266.53 45.36 266.57 45.67 266.68 45.87C266.77 46.08 266.92 46.18 267.11 46.18ZM263.52 46.83V46.13C263.58 46.16 263.62 46.19 263.68 46.2C263.72 46.22 263.77 46.22 263.8 46.22C263.93 46.22 264.02 46.17 264.07 46.08C264.12 45.99 264.14 45.74 264.14 45.35V43.01H264.92V45.7C264.92 45.96 264.91 46.16 264.88 46.28C264.85 46.4 264.81 46.5 264.73 46.59C264.66 46.7 264.55 46.78 264.42 46.84C264.3 46.9 264.15 46.93 263.99 46.93C263.9 46.93 263.81 46.93 263.74 46.91C263.67 46.9 263.59 46.87 263.53 46.84L263.52 46.83Z" fill="#1A1A18"/>
<path d="M252.57 5.25001V35.73L226.17 50.97V40.91L243.85 30.7V10.28L252.56 5.25001H252.57ZM234.89 15.46V25.52L226.18 30.55V20.5L234.89 15.46ZM226.17 0.0700073V10.43L217.47 15.46V25.52L208.49 30.7V10.28L226.17 0.0700073Z" fill="#471740"/>
<path d="M263.52 14.86H271.85V37.37H263.52V14.86ZM263.52 4.62H271.85V12.86H263.52V4.62ZM276.33 14.86H284.48V16.54H284.52C286.69 14.86 288.2 14.85 291.47 14.86C292.5 14.86 293.16 14.86 294.02 14.86V21.6C293.05 21.63 292.13 21.63 290.37 21.6C287.82 21.55 284.62 22.43 284.62 26.14V37.37H276.34V14.86H276.33ZM308 29.38V28.05H305.86C304.12 28.05 302.84 28.55 302.84 30.3C302.84 31.51 303.42 32.47 305.21 32.47C306.75 32.47 308.01 31.35 308.01 29.39L308 29.38ZM295.89 31.46C295.89 25.8 301.43 24.14 305.46 24.14H308.01V22.56C308.01 21.02 307.1 20.02 305.28 20.02C303.32 20.02 302.64 21.23 302.64 22.31V22.85H296.55V21.98C296.55 17.19 300.88 14.74 305.76 14.74C310.37 14.74 314.89 16.95 314.89 22.65V32.43C314.88 34.63 314.88 35.73 314.89 37.38H308.35C308.32 36.95 308.32 36.97 308.35 34.67C306.75 37.38 303.98 37.87 302.24 37.87C298.62 37.87 295.89 35.62 295.89 31.46Z" fill="#723366"/>
<path d="M319.25 8.56V4.19H320.12L321.15 7.28C321.25 7.57 321.33 7.78 321.36 7.93C321.42 7.77 321.49 7.54 321.6 7.23L322.65 4.19H323.43V8.56H322.88V4.9L321.61 8.56H321.09L319.83 4.84V8.56H319.26H319.25ZM316.66 8.56V4.71H315.22V4.19H318.68V4.71H317.23V8.56H316.66Z" fill="#1A1A18"/>
<path d="M182.21 0V50.97" stroke="#D5D5D5" stroke-width="0.75" stroke-miterlimit="22.93"/>
<path d="M153.51 48.06C153.11 48.06 152.76 47.96 152.48 47.77C152.18 47.58 151.99 47.31 151.87 46.97L152.24 46.75C152.33 47.03 152.48 47.24 152.69 47.4C152.91 47.56 153.18 47.63 153.53 47.63C153.88 47.63 154.11 47.56 154.31 47.41C154.49 47.26 154.58 47.07 154.58 46.83C154.58 46.59 154.51 46.42 154.33 46.3C154.17 46.18 153.88 46.06 153.49 45.93C153.03 45.78 152.73 45.65 152.58 45.56C152.24 45.35 152.07 45.06 152.07 44.67C152.07 44.28 152.19 43.99 152.46 43.77C152.73 43.55 153.04 43.44 153.43 43.44C153.77 43.44 154.09 43.53 154.34 43.71C154.59 43.89 154.77 44.12 154.91 44.4L154.52 44.61C154.33 44.12 153.95 43.87 153.43 43.87C153.16 43.87 152.94 43.94 152.76 44.07C152.6 44.21 152.51 44.39 152.51 44.64C152.51 44.86 152.6 45.03 152.75 45.14C152.9 45.25 153.15 45.36 153.5 45.48C153.66 45.54 153.78 45.57 153.86 45.6C153.92 45.62 154.02 45.66 154.16 45.71C154.29 45.76 154.4 45.81 154.46 45.85C154.52 45.89 154.59 45.95 154.68 46.01C154.77 46.08 154.84 46.15 154.89 46.22C154.92 46.29 154.96 46.38 154.99 46.48C155.02 46.58 155.03 46.69 155.03 46.8C155.03 47.18 154.9 47.48 154.61 47.71C154.34 47.94 153.98 48.05 153.52 48.05M147.91 47.57H150.08V47.99H147.46V43.53H150.05V43.95H147.91V45.53H149.89V45.95H147.91V47.57ZM144.76 47.63C144.46 47.92 144.06 48.06 143.56 48.06C143.06 48.06 142.68 47.92 142.36 47.63C142.06 47.34 141.91 46.95 141.91 46.47V43.52H142.34V46.47C142.34 46.83 142.46 47.11 142.67 47.32C142.88 47.53 143.18 47.63 143.55 47.63C143.92 47.63 144.24 47.53 144.45 47.32C144.66 47.11 144.76 46.83 144.76 46.47V43.52H145.21V46.47C145.21 46.95 145.06 47.34 144.75 47.63H144.76ZM138.08 47.57H140.12V47.99H137.63V43.53H138.08V47.57ZM135.31 47.99L134.91 46.89H132.78L132.38 47.99H131.9L133.62 43.53H134.07L135.79 47.99H135.31ZM132.95 46.47H134.75L133.85 44.08L132.95 46.47ZM128.65 47.99L127 43.53H127.48L128.87 47.4L130.26 43.53H130.75L129.1 47.99H128.64H128.65ZM121.84 43.52H122.29V47.98H121.9L119.41 44.35V47.98H118.98V43.52H119.35L121.84 47.16V43.52ZM116.27 47.39C115.82 47.84 115.27 48.06 114.62 48.06C113.97 48.06 113.44 47.84 112.99 47.39C112.54 46.94 112.32 46.4 112.32 45.75C112.32 45.1 112.54 44.56 112.99 44.11C113.44 43.66 113.98 43.44 114.62 43.44C115.26 43.44 115.82 43.66 116.27 44.11C116.72 44.56 116.93 45.1 116.93 45.75C116.93 46.4 116.72 46.94 116.27 47.39ZM113.3 47.08C113.66 47.44 114.09 47.63 114.62 47.63C115.15 47.63 115.59 47.45 115.95 47.08C116.31 46.72 116.49 46.27 116.49 45.75C116.49 45.23 116.31 44.78 115.95 44.42C115.59 44.06 115.14 43.87 114.62 43.87C114.1 43.87 113.66 44.05 113.3 44.42C112.94 44.79 112.76 45.23 112.76 45.75C112.76 46.27 112.94 46.72 113.3 47.08ZM106.96 43.52H107.41V47.98H107.04L104.55 44.35V47.98H104.1V43.52H104.47L106.96 47.16V43.52ZM101.38 47.39C100.93 47.84 100.39 48.06 99.7501 48.06C99.1101 48.06 98.5501 47.84 98.1001 47.39C97.6501 46.94 97.4301 46.4 97.4301 45.75C97.4301 45.1 97.6501 44.56 98.1001 44.11C98.5501 43.66 99.0901 43.44 99.7501 43.44C100.41 43.44 100.93 43.66 101.38 44.11C101.83 44.56 102.05 45.1 102.05 45.75C102.05 46.4 101.83 46.94 101.38 47.39ZM98.4201 47.08C98.7801 47.44 99.2101 47.63 99.7501 47.63C100.29 47.63 100.71 47.45 101.07 47.08C101.43 46.72 101.61 46.27 101.61 45.75C101.61 45.23 101.43 44.78 101.07 44.42C100.71 44.06 100.28 43.87 99.7501 43.87C99.2201 43.87 98.7801 44.05 98.4201 44.42C98.0601 44.79 97.8801 45.23 97.8801 45.75C97.8801 46.27 98.0601 46.72 98.4201 47.08ZM94.9501 47.99H95.4001V43.53H94.9501V47.99ZM93.0401 43.52V43.94H91.6601V47.98H91.2101V43.94H89.8501V43.52H93.0401ZM88.2201 47.99L87.8201 46.89H85.6901L85.2901 47.99H84.8101L86.5301 43.53H86.9901L88.7001 47.99H88.2201ZM85.8601 46.47H87.6601L86.7601 44.08L85.8601 46.47ZM81.2801 43.52C81.8901 43.52 82.3901 43.74 82.7901 44.17C83.1801 44.6 83.3701 45.13 83.3701 45.76C83.3701 46.39 83.1801 46.91 82.7901 47.34C82.3901 47.77 81.8901 47.99 81.2801 47.99H79.5601V43.53H81.2801V43.52ZM81.2801 47.57C81.7701 47.57 82.1601 47.4 82.4801 47.05C82.7901 46.7 82.9601 46.27 82.9601 45.76C82.9601 45.25 82.8001 44.82 82.4801 44.47C82.1701 44.12 81.7801 43.95 81.2801 43.95H80.0101V47.57H81.2801ZM76.8101 43.52H77.2601V47.98H76.8701L74.3801 44.35V47.98H73.9301V43.52H74.3201L76.8101 47.16V43.52ZM71.2601 47.63C70.9501 47.92 70.5601 48.06 70.0601 48.06C69.5601 48.06 69.1601 47.92 68.8601 47.63C68.5501 47.34 68.4001 46.95 68.4001 46.47V43.52H68.8501V46.47C68.8501 46.83 68.9501 47.11 69.1601 47.32C69.3701 47.53 69.6701 47.63 70.0601 47.63C70.4501 47.63 70.7301 47.53 70.9401 47.32C71.1501 47.11 71.2701 46.83 71.2701 46.47V43.52H71.7001V46.47C71.7001 46.95 71.5501 47.34 71.2501 47.63H71.2601ZM65.7801 47.39C65.3501 47.84 64.7901 48.06 64.1501 48.06C63.5101 48.06 62.9501 47.84 62.5001 47.39C62.0701 46.94 61.8401 46.4 61.8401 45.75C61.8401 45.1 62.0601 44.56 62.5001 44.11C62.9501 43.66 63.5001 43.44 64.1501 43.44C64.8001 43.44 65.3501 43.66 65.7801 44.11C66.2301 44.56 66.4501 45.1 66.4501 45.75C66.4501 46.4 66.2301 46.94 65.7801 47.39ZM62.8101 47.08C63.1701 47.44 63.6201 47.63 64.1401 47.63C64.6601 47.63 65.1101 47.45 65.4601 47.08C65.8201 46.72 66.0001 46.27 66.0001 45.75C66.0001 45.23 65.8201 44.78 65.4601 44.42C65.1201 44.06 64.6701 43.87 64.1401 43.87C63.6101 43.87 63.1701 44.05 62.8101 44.42C62.4501 44.78 62.2901 45.23 62.2901 45.75C62.2901 46.27 62.4501 46.72 62.8101 47.08ZM60.0601 43.94H57.9801V45.59H59.9601V46.01H57.9801V47.99H57.5301V43.53H60.0601V43.95V43.94ZM152.47 28.41H143.64L146.25 22.8L148.56 27.74H152.17L148.04 18.97L146.26 15.17L144.48 18.97L136.54 35.86H140.18L142.23 31.46H150.3L152.35 35.86H155.97L152.48 28.42L152.47 28.41ZM67.8401 15.16V16.74L80.8401 35.88L84.8101 35.86L70.6601 15.17H67.8401V15.16ZM125.1 27.91L125.01 27.79C124.28 28.06 123.48 28.17 122.27 28.17H121.39L126.17 35.24C126.17 35.24 126.2 35.27 126.2 35.29L126.59 35.87H127.19C127.19 35.87 127.23 35.87 127.26 35.87H129.45C129.52 35.87 129.58 35.87 129.66 35.85H130.57L129.31 34.11L125.1 27.91ZM129.18 21.38C129.18 16.59 125.2 15.16 121.84 15.16H118.1V18.15H121.69C124.22 18.15 125.73 19.13 125.73 21.38C125.73 23.24 124.76 24.69 121.69 24.69H118.1V27.68H121.84C125.28 27.68 129.18 26.17 129.18 21.38ZM114.02 33.82V35.86H117.58V15.16H114.02V33.82ZM105.77 23.92H96.2501V26.97H106.69V23.92H105.81C105.81 23.92 105.8 23.92 105.78 23.92H105.77ZM92.1901 35.88H95.7501V15.16H92.1901V35.88ZM106.04 15.16H96.2501V18.24H106.69V15.16H106.05H106.04ZM67.8401 35.88H71.4001V23.1L67.8401 17.82V35.88ZM84.7801 15.16H81.2201V29.67L84.7801 34.85V15.16ZM59.8601 15.16H56.9101V35.88H60.4701V15.16H59.8701C59.8701 15.16 59.8701 15.16 59.8601 15.16ZM51.0301 26.61V23.66H43.3601V27.23H50.8001C50.9601 27.23 51.0201 27.11 51.0201 26.61H51.0301Z" fill="#1A1A18"/>
<path d="M7.1 40.55V2.94H5.27V21.82H4.43V6.57H2.65V21.83H1.78V10.6H0V47.99H37.1V40.55H7.1ZM9.12 2.94V10.59H29.84V21.82H15.14V29.47H37.11V2.94H9.12Z" fill="#DEB94F"/>
</g>
<defs>
<clipPath id="clip0_145_5">
<rect width="323.43" height="50.97" fill="white"/>
</clipPath>
</defs>
</svg>
