<svg width="481" height="66" viewBox="0 0 481 66" fill="none" xmlns="http://www.w3.org/2000/svg">
<path d="M86.4687 0.0259343C70.6859 0.543997 54.7038 14.6911 54.4248 30.8706C54.4248 31.0698 54.4248 31.2691 54.4248 31.4683C54.4248 31.5879 54.4248 31.6676 54.4248 31.7871C54.4248 33.3413 55.7002 34.6166 57.2546 34.6166H119.868C121.063 34.6166 122.06 33.8992 122.498 32.8631C122.618 32.7037 122.697 32.5045 122.697 32.3052C123.455 26.7261 119.429 17.64 115.962 13.2564C108.469 3.81177 98.4652 -0.372575 86.4687 0.0259343ZM116.48 28.2803C116.48 28.2803 116.121 28.36 116.042 28.36H61.3995C61.3995 28.36 60.7618 28.3998 60.722 28.2404C60.5626 27.7622 61.5988 24.9328 61.8379 24.2952C71.0047 -0.651532 107.194 -0.133469 115.643 25.0922C115.802 25.5704 116.56 27.9614 116.48 28.2404" fill="#092958"/>
<path d="M86.4687 0.0259343C70.6859 0.543997 54.7038 14.6911 54.4248 30.8706C54.4248 31.0698 54.4248 31.2691 54.4248 31.4683C54.4248 31.5879 54.4248 31.6676 54.4248 31.7871C54.4248 33.3413 55.7002 34.6166 57.2546 34.6166H119.868C121.063 34.6166 122.06 33.8992 122.498 32.8631C122.618 32.7037 122.697 32.5045 122.697 32.3052C123.455 26.7261 119.429 17.64 115.962 13.2564C108.469 3.81177 98.4652 -0.372575 86.4687 0.0259343ZM116.48 28.2803C116.48 28.2803 116.121 28.36 116.042 28.36H61.3995C61.3995 28.36 60.7618 28.3998 60.722 28.2404C60.5626 27.7622 61.5988 24.9328 61.8379 24.2952C71.0047 -0.651532 107.194 -0.133469 115.643 25.0922C115.802 25.5704 116.56 27.9614 116.48 28.2404" fill="white"/>
<path d="M40.0372 11.9411C40.0372 11.9411 39.798 11.9411 39.6785 11.9411C39.0009 11.9411 38.3632 12.1802 37.885 12.5787C37.606 12.7779 37.2871 12.9772 37.0082 13.2163C33.182 16.7232 29.6747 22.0632 26.0479 25.8889C24.8921 27.1243 23.4174 28.3995 22.142 29.4755C21.7833 29.7943 21.1058 29.7146 20.7072 29.3559C16.4427 25.2513 13.0549 20.788 8.98967 16.6036C7.95342 15.5277 6.7179 13.8539 5.44252 12.8178C5.04396 12.3794 4.52584 12.1005 3.92801 11.9809C3.37003 11.8215 2.85191 11.8614 2.33378 12.1403C1.49682 12.4591 0.859127 13.2163 0.619993 14.1329C0.580137 14.2126 0.540282 14.2923 0.500426 14.4118L0.380859 53.8244C0.420715 54.7011 0.73956 55.4184 1.13812 55.9365C1.65624 56.5741 2.45335 57.0125 3.37003 57.0125C3.52945 57.0125 3.68887 57.0125 3.8483 56.9726C5.00411 56.8132 6.12007 55.9764 6.47877 54.3823V23.6573C6.87732 22.5414 9.02952 25.0919 9.42808 25.5302C12.3774 28.6785 16.084 33.7794 19.2724 36.3697C20.9463 37.7645 22.1022 37.6449 23.7362 36.3697C26.566 34.1779 29.874 29.5552 32.4646 26.8453C33.1422 26.1679 35.1748 23.8565 35.8125 23.4978C36.4502 23.0993 36.7292 23.2986 36.7292 24.0159V54.7808C37.0082 55.4583 37.3669 55.9365 37.8053 56.2952C38.2437 56.6937 38.8017 56.9328 39.4393 56.9726C39.4393 56.9726 39.5191 56.9726 39.5589 56.9726C39.5589 56.9726 39.6386 56.9726 39.6785 56.9726C41.193 56.9726 42.6278 55.7771 42.6278 53.5853V14.89C42.3887 12.9772 41.3126 12.0208 40.0372 11.9411Z" fill="#092958"/>
<path d="M40.0372 11.9411C40.0372 11.9411 39.798 11.9411 39.6785 11.9411C39.0009 11.9411 38.3632 12.1802 37.885 12.5787C37.606 12.7779 37.2871 12.9772 37.0082 13.2163C33.182 16.7232 29.6747 22.0632 26.0479 25.8889C24.8921 27.1243 23.4174 28.3995 22.142 29.4755C21.7833 29.7943 21.1058 29.7146 20.7072 29.3559C16.4427 25.2513 13.0549 20.788 8.98967 16.6036C7.95342 15.5277 6.7179 13.8539 5.44252 12.8178C5.04396 12.3794 4.52584 12.1005 3.92801 11.9809C3.37003 11.8215 2.85191 11.8614 2.33378 12.1403C1.49682 12.4591 0.859127 13.2163 0.619993 14.1329C0.580137 14.2126 0.540282 14.2923 0.500426 14.4118L0.380859 53.8244C0.420715 54.7011 0.73956 55.4184 1.13812 55.9365C1.65624 56.5741 2.45335 57.0125 3.37003 57.0125C3.52945 57.0125 3.68887 57.0125 3.8483 56.9726C5.00411 56.8132 6.12007 55.9764 6.47877 54.3823V23.6573C6.87732 22.5414 9.02952 25.0919 9.42808 25.5302C12.3774 28.6785 16.084 33.7794 19.2724 36.3697C20.9463 37.7645 22.1022 37.6449 23.7362 36.3697C26.566 34.1779 29.874 29.5552 32.4646 26.8453C33.1422 26.1679 35.1748 23.8565 35.8125 23.4978C36.4502 23.0993 36.7292 23.2986 36.7292 24.0159V54.7808C37.0082 55.4583 37.3669 55.9365 37.8053 56.2952C38.2437 56.6937 38.8017 56.9328 39.4393 56.9726C39.4393 56.9726 39.5191 56.9726 39.5589 56.9726C39.5589 56.9726 39.6386 56.9726 39.6785 56.9726C41.193 56.9726 42.6278 55.7771 42.6278 53.5853V14.89C42.3887 12.9772 41.3126 12.0208 40.0372 11.9411Z" fill="white"/>
<path d="M222.336 11.9818C221.26 12.1412 220.144 13.2171 219.945 14.2533V43.8226C219.945 44.3806 219.187 43.982 218.829 43.5038L197.506 13.5359C195.752 10.9855 192.165 11.5035 191.687 14.6518V54.3831C191.966 57.4915 196.948 58.1291 197.546 54.3433L197.626 25.4514C197.984 24.734 198.582 25.2521 198.901 25.7303L220.542 55.9772C222.814 57.9299 225.843 56.8937 225.803 53.7455V15.2894C225.604 13.1374 224.687 11.6231 222.296 11.9818" fill="#092958"/>
<path d="M222.336 11.9818C221.26 12.1412 220.144 13.2171 219.945 14.2533V43.8226C219.945 44.3806 219.187 43.982 218.829 43.5038L197.506 13.5359C195.752 10.9855 192.165 11.5035 191.687 14.6518V54.3831C191.966 57.4915 196.948 58.1291 197.546 54.3433L197.626 25.4514C197.984 24.734 198.582 25.2521 198.901 25.7303L220.542 55.9772C222.814 57.9299 225.843 56.8937 225.803 53.7455V15.2894C225.604 13.1374 224.687 11.6231 222.296 11.9818" fill="white"/>
<path d="M157.293 11.8203C144.738 11.8203 134.575 21.9425 134.575 34.4556C134.575 46.9688 144.738 57.091 157.293 57.091C169.847 57.091 180.011 46.9688 180.011 34.4556C180.011 21.9425 169.847 11.8203 157.293 11.8203ZM157.253 51.1532C148.007 51.1532 140.514 43.6612 140.514 34.4556C140.514 25.2501 148.007 17.7581 157.253 17.7581C166.5 17.7581 173.992 25.2501 173.992 34.4556C173.992 43.6612 166.5 51.1532 157.253 51.1532Z" fill="#092958"/>
<path d="M157.293 11.8203C144.738 11.8203 134.575 21.9425 134.575 34.4556C134.575 46.9688 144.738 57.091 157.293 57.091C169.847 57.091 180.011 46.9688 180.011 34.4556C180.011 21.9425 169.847 11.8203 157.293 11.8203ZM157.253 51.1532C148.007 51.1532 140.514 43.6612 140.514 34.4556C140.514 25.2501 148.007 17.7581 157.253 17.7581C166.5 17.7581 173.992 25.2501 173.992 34.4556C173.992 43.6612 166.5 51.1532 157.253 51.1532Z" fill="white"/>
<path d="M478.17 31.4697H449.714C448.159 31.4697 446.884 32.745 446.884 34.2991C446.884 35.8533 448.159 37.1286 449.714 37.1286H478.17C479.725 37.1286 481 35.8533 481 34.2991C481 32.745 479.725 31.4697 478.17 31.4697Z" fill="#092958"/>
<path d="M478.17 31.4697H449.714C448.159 31.4697 446.884 32.745 446.884 34.2991C446.884 35.8533 448.159 37.1286 449.714 37.1286H478.17C479.725 37.1286 481 35.8533 481 34.2991C481 32.745 479.725 31.4697 478.17 31.4697Z" fill="white"/>
<path d="M478.17 51.2344H449.714C448.159 51.2344 446.884 52.5096 446.884 54.0638C446.884 55.618 448.159 56.8932 449.714 56.8932H478.17C479.725 56.8932 481 55.618 481 54.0638C481 52.5096 479.725 51.2344 478.17 51.2344Z" fill="#092958"/>
<path d="M478.17 51.2344H449.714C448.159 51.2344 446.884 52.5096 446.884 54.0638C446.884 55.618 448.159 56.8932 449.714 56.8932H478.17C479.725 56.8932 481 55.618 481 54.0638C481 52.5096 479.725 51.2344 478.17 51.2344Z" fill="white"/>
<path d="M478.17 11.6631H449.714C448.159 11.6631 446.884 12.9383 446.884 14.4925C446.884 16.0467 448.159 17.3219 449.714 17.3219H478.17C479.725 17.3219 481 16.0467 481 14.4925C481 12.9383 479.725 11.6631 478.17 11.6631Z" fill="#092958"/>
<path d="M478.17 11.6631H449.714C448.159 11.6631 446.884 12.9383 446.884 14.4925C446.884 16.0467 448.159 17.3219 449.714 17.3219H478.17C479.725 17.3219 481 16.0467 481 14.4925C481 12.9383 479.725 11.6631 478.17 11.6631Z" fill="white"/>
<path d="M412.447 11.9012H396.983C395.548 11.9012 394.392 13.0569 394.392 14.4915C394.392 15.9261 395.548 17.0818 396.983 17.0818H412.447C422.132 17.0818 429.983 25.0121 429.824 34.7358C429.665 44.2601 421.733 51.8318 412.168 51.8318H396.943C395.508 51.8318 394.353 52.9875 394.353 54.4221C394.353 55.8568 395.508 57.0124 396.943 57.0124H412.128C424.563 57.0124 434.886 47.0896 435.005 34.6561C435.125 22.103 424.962 11.8613 412.407 11.8613" fill="#092958"/>
<path d="M412.447 11.9012H396.983C395.548 11.9012 394.392 13.0569 394.392 14.4915C394.392 15.9261 395.548 17.0818 396.983 17.0818H412.447C422.132 17.0818 429.983 25.0121 429.824 34.7358C429.665 44.2601 421.733 51.8318 412.168 51.8318H396.943C395.508 51.8318 394.353 52.9875 394.353 54.4221C394.353 55.8568 395.508 57.0124 396.943 57.0124H412.128C424.563 57.0124 434.886 47.0896 435.005 34.6561C435.125 22.103 424.962 11.8613 412.407 11.8613" fill="white"/>
<path d="M325.722 51.3151H300.095V14.7718C300.095 13.2176 298.819 11.9424 297.265 11.9424C295.71 11.9424 294.435 13.2176 294.435 14.7718V53.9054C294.435 53.9054 294.435 54.0648 294.435 54.1445C294.435 55.6987 295.71 56.9739 297.265 56.9739H325.722C327.276 56.9739 328.551 55.6987 328.551 54.1445C328.551 52.5903 327.276 51.3151 325.722 51.3151Z" fill="#092958"/>
<path d="M325.722 51.3151H300.095V14.7718C300.095 13.2176 298.819 11.9424 297.265 11.9424C295.71 11.9424 294.435 13.2176 294.435 14.7718V53.9054C294.435 53.9054 294.435 54.0648 294.435 54.1445C294.435 55.6987 295.71 56.9739 297.265 56.9739H325.722C327.276 56.9739 328.551 55.6987 328.551 54.1445C328.551 52.5903 327.276 51.3151 325.722 51.3151Z" fill="white"/>
<path d="M279.849 31.3082H260.36C258.646 31.3082 257.251 32.703 257.211 34.3767C257.132 34.9346 257.251 35.4926 257.65 36.0106C258.208 36.9272 259.204 37.5648 260.36 37.5648H276.063C276.621 37.7641 276.74 38.1626 276.501 39.0791C275.625 42.5063 272.157 46.7305 269.208 48.6035C254.342 57.8489 236.526 40.8326 246.012 25.6892C251.073 17.5995 261.834 15.2881 269.766 20.668C270.324 21.0665 271.519 21.9831 272.038 22.4613C273.711 24.0155 273.911 26.008 276.74 25.6892C278.733 25.4501 279.69 23.2583 278.893 21.5049C277.099 17.4799 268.889 12.9369 264.704 12.1798C244.657 8.51348 229.791 30.7902 241.827 47.5674C248.762 57.2113 261.436 59.7618 271.759 53.9834C277.936 50.5164 283.436 42.1477 282.998 34.8549C282.998 34.7354 282.998 34.6158 282.998 34.4963C282.998 32.7428 281.603 31.3481 279.849 31.3481" fill="#092958"/>
<path d="M279.849 31.3082H260.36C258.646 31.3082 257.251 32.703 257.211 34.3767C257.132 34.9346 257.251 35.4926 257.65 36.0106C258.208 36.9272 259.204 37.5648 260.36 37.5648H276.063C276.621 37.7641 276.74 38.1626 276.501 39.0791C275.625 42.5063 272.157 46.7305 269.208 48.6035C254.342 57.8489 236.526 40.8326 246.012 25.6892C251.073 17.5995 261.834 15.2881 269.766 20.668C270.324 21.0665 271.519 21.9831 272.038 22.4613C273.711 24.0155 273.911 26.008 276.74 25.6892C278.733 25.4501 279.69 23.2583 278.893 21.5049C277.099 17.4799 268.889 12.9369 264.704 12.1798C244.657 8.51348 229.791 30.7902 241.827 47.5674C248.762 57.2113 261.436 59.7618 271.759 53.9834C277.936 50.5164 283.436 42.1477 282.998 34.8549C282.998 34.7354 282.998 34.6158 282.998 34.4963C282.998 32.7428 281.603 31.3481 279.849 31.3481" fill="white"/>
<path d="M100.618 59.9619H76.5846C75.0303 59.9619 73.7549 61.2371 73.7549 62.7913C73.7549 64.3455 75.0303 65.6207 76.5846 65.6207H100.618C102.172 65.6207 103.447 64.3455 103.447 62.7913C103.447 61.2371 102.172 59.9619 100.618 59.9619Z" fill="#092958"/>
<path d="M100.618 59.9619H76.5846C75.0303 59.9619 73.7549 61.2371 73.7549 62.7913C73.7549 64.3455 75.0303 65.6207 76.5846 65.6207H100.618C102.172 65.6207 103.447 64.3455 103.447 62.7913C103.447 61.2371 102.172 59.9619 100.618 59.9619Z" fill="white"/>
<path d="M113.932 49.5205H63.2752C61.7209 49.5205 60.4854 50.7957 60.4854 52.3101C60.4854 53.9041 61.7607 55.1793 63.2752 55.1793H113.932C115.486 55.1793 116.722 53.9041 116.722 52.3898C116.722 50.7957 115.446 49.5205 113.932 49.5205Z" fill="#092958"/>
<path d="M113.932 49.5205H63.2752C61.7209 49.5205 60.4854 50.7957 60.4854 52.3101C60.4854 53.9041 61.7607 55.1793 63.2752 55.1793H113.932C115.486 55.1793 116.722 53.9041 116.722 52.3898C116.722 50.7957 115.446 49.5205 113.932 49.5205Z" fill="white"/>
<path d="M119.11 39.0801H58.1305C56.5762 39.0801 55.3008 40.3553 55.3008 41.9095C55.3008 43.4637 56.5762 44.7389 58.1305 44.7389H119.11C120.664 44.7389 121.939 43.4637 121.939 41.9095C121.939 40.3553 120.664 39.0801 119.11 39.0801Z" fill="#092958"/>
<path d="M119.11 39.0801H58.1305C56.5762 39.0801 55.3008 40.3553 55.3008 41.9095C55.3008 43.4637 56.5762 44.7389 58.1305 44.7389H119.11C120.664 44.7389 121.939 43.4637 121.939 41.9095C121.939 40.3553 120.664 39.0801 119.11 39.0801Z" fill="white"/>
<path d="M381.917 53.068L364.142 13.5359C363.663 12.4599 362.587 11.8223 361.471 11.8621C360.355 11.8621 359.279 12.4599 358.801 13.5359L341.026 53.068C340.388 54.5026 341.026 56.1764 342.46 56.814C343.895 57.4516 345.569 56.814 346.207 55.3793L361.471 21.4263L376.736 55.3793C377.374 56.814 379.048 57.4516 380.483 56.814C381.917 56.1764 382.555 54.5026 381.917 53.068Z" fill="#092958"/>
<path d="M381.917 53.068L364.142 13.5359C363.663 12.4599 362.587 11.8223 361.471 11.8621C360.355 11.8621 359.279 12.4599 358.801 13.5359L341.026 53.068C340.388 54.5026 341.026 56.1764 342.46 56.814C343.895 57.4516 345.569 56.814 346.207 55.3793L361.471 21.4263L376.736 55.3793C377.374 56.814 379.048 57.4516 380.483 56.814C381.917 56.1764 382.555 54.5026 381.917 53.068Z" fill="white"/>
</svg>
