<svg width="28" height="28" viewBox="0 0 28 28" fill="none" xmlns="http://www.w3.org/2000/svg">
<path d="M2.7998 6.3C2.7998 5.9134 3.11321 5.6 3.4998 5.6H24.4998C24.8863 5.6 25.1998 5.9134 25.1998 6.3C25.1998 6.6866 24.8863 7 24.4998 7H3.4998C3.11321 7 2.7998 6.6866 2.7998 6.3ZM2.7998 13.3C2.7998 12.9134 3.11321 12.6 3.4998 12.6H24.4998C24.8863 12.6 25.1998 12.9134 25.1998 13.3C25.1998 13.6866 24.8863 14 24.4998 14H3.4998C3.11321 14 2.7998 13.6866 2.7998 13.3ZM3.4998 19.6C3.11321 19.6 2.7998 19.9135 2.7998 20.3C2.7998 20.6865 3.11321 21 3.4998 21H24.4998C24.8863 21 25.1998 20.6865 25.1998 20.3C25.1998 19.9135 24.8863 19.6 24.4998 19.6H3.4998Z" fill="#181B20"/>
</svg>
