<svg width="237" height="34" viewBox="0 0 237 34" fill="none" xmlns="http://www.w3.org/2000/svg">
<path d="M235.605 26.1172H221.572C220.806 26.1172 220.177 26.746 220.177 27.5124C220.177 28.2788 220.806 28.9076 221.572 28.9076H235.605C236.371 28.9076 237 28.2788 237 27.5124C237 26.746 236.371 26.1172 235.605 26.1172Z" fill="#092958"/>
<path d="M235.605 26.1172H221.572C220.806 26.1172 220.177 26.746 220.177 27.5124C220.177 28.2788 220.806 28.9076 221.572 28.9076H235.605C236.371 28.9076 237 28.2788 237 27.5124C237 26.746 236.371 26.1172 235.605 26.1172Z" fill="#181B20"/>
<path d="M49.428 30.4208H37.577C36.8106 30.4208 36.1816 31.0496 36.1816 31.816C36.1816 32.5824 36.8106 33.2112 37.577 33.2112H49.428C50.1945 33.2112 50.8234 32.5824 50.8234 31.816C50.8234 31.0496 50.1945 30.4208 49.428 30.4208Z" fill="#092958"/>
<path d="M49.428 30.4208H37.577C36.8106 30.4208 36.1816 31.0496 36.1816 31.816C36.1816 32.5824 36.8106 33.2112 37.577 33.2112H49.428C50.1945 33.2112 50.8234 32.5824 50.8234 31.816C50.8234 31.0496 50.1945 30.4208 49.428 30.4208Z" fill="#181B20"/>
<path d="M55.9929 25.2722H31.0134C30.2469 25.2722 29.6377 25.901 29.6377 26.6478C29.6377 27.4338 30.2666 28.0626 31.0134 28.0626H55.9929C56.7593 28.0626 57.3686 27.4338 57.3686 26.6871C57.3686 25.901 56.7397 25.2722 55.9929 25.2722Z" fill="#092958"/>
<path d="M55.9929 25.2722H31.0134C30.2469 25.2722 29.6377 25.901 29.6377 26.6478C29.6377 27.4338 30.2666 28.0626 31.0134 28.0626H55.9929C56.7593 28.0626 57.3686 27.4338 57.3686 26.6871C57.3686 25.901 56.7397 25.2722 55.9929 25.2722Z" fill="#181B20"/>
<path d="M42.4507 0.865572C34.668 1.12104 26.787 8.09716 26.6494 16.0755C26.6494 16.1737 26.6494 16.272 26.6494 16.3703C26.6494 16.4292 26.6494 16.4685 26.6494 16.5275C26.6494 17.2939 27.2783 17.9227 28.0448 17.9227H58.9202C59.5098 17.9227 60.0012 17.569 60.2174 17.058C60.2763 16.9794 60.3156 16.8812 60.3156 16.7829C60.689 14.0318 58.704 9.55134 56.9942 7.38972C53.2994 2.73242 48.3664 0.669061 42.4507 0.865572ZM57.2497 14.7982C57.2497 14.7982 57.0728 14.8375 57.0335 14.8375H30.0888C30.0888 14.8375 29.7743 14.8571 29.7546 14.7785C29.676 14.5427 30.187 13.1475 30.3049 12.8331C34.8252 0.531504 52.6705 0.786968 56.837 13.2261C56.9156 13.4619 57.289 14.641 57.2497 14.7785" fill="#181B20"/>
<path d="M42.4507 0.865572C34.668 1.12104 26.787 8.09716 26.6494 16.0755C26.6494 16.1737 26.6494 16.272 26.6494 16.3703C26.6494 16.4292 26.6494 16.4685 26.6494 16.5275C26.6494 17.2939 27.2783 17.9227 28.0448 17.9227H58.9202C59.5098 17.9227 60.0012 17.569 60.2174 17.058C60.2763 16.9794 60.3156 16.8812 60.3156 16.7829C60.689 14.0318 58.704 9.55134 56.9942 7.38972C53.2994 2.73242 48.3664 0.669061 42.4507 0.865572ZM57.2497 14.7982C57.2497 14.7982 57.0728 14.8375 57.0335 14.8375H30.0888C30.0888 14.8375 29.7743 14.8571 29.7546 14.7785C29.676 14.5427 30.187 13.1475 30.3049 12.8331C34.8252 0.531504 52.6705 0.786968 56.837 13.2261C56.9156 13.4619 57.289 14.641 57.2497 14.7785" fill="#181B20"/>
<path d="M19.5551 6.74124C19.5551 6.74124 19.4372 6.74124 19.3782 6.74124C19.0441 6.74124 18.7297 6.85914 18.4938 7.05565C18.3562 7.15391 18.199 7.25216 18.0614 7.37007C16.1747 9.09936 14.4452 11.7326 12.6568 13.6191C12.0868 14.2283 11.3596 14.8571 10.7307 15.3877C10.5539 15.5449 10.2197 15.5056 10.0232 15.3287C7.9203 13.3047 6.24977 11.1038 4.24513 9.04041C3.73414 8.50983 3.12488 7.68449 2.49598 7.17356C2.29944 6.9574 2.04395 6.81984 1.74915 6.76089C1.474 6.68228 1.21851 6.70193 0.963015 6.83949C0.550294 6.9967 0.23584 7.37007 0.11792 7.82204C0.0982668 7.86135 0.0786134 7.90065 0.0589601 7.9596L0 27.3945C0.0196534 27.8268 0.17688 28.1805 0.373414 28.436C0.628908 28.7504 1.02197 28.9666 1.474 28.9666C1.55262 28.9666 1.63123 28.9666 1.70984 28.9469C2.27979 28.8683 2.83008 28.4557 3.00696 27.6696V12.5186C3.2035 11.9684 4.26478 13.2261 4.46131 13.4422C5.91566 14.9947 7.74342 17.51 9.31569 18.7873C10.1411 19.4751 10.7111 19.4162 11.5169 18.7873C12.9123 17.7065 14.5435 15.427 15.821 14.0907C16.1551 13.7567 17.1574 12.6169 17.4718 12.44C17.7863 12.2435 17.9239 12.3418 17.9239 12.6955V27.8661C18.0614 28.2002 18.2383 28.436 18.4545 28.6129C18.6707 28.8094 18.9458 28.9273 19.2603 28.9469C19.2603 28.9469 19.2996 28.9469 19.3193 28.9469C19.3193 28.9469 19.3586 28.9469 19.3782 28.9469C20.125 28.9469 20.8326 28.3574 20.8326 27.2766V8.19541C20.7146 7.25216 20.184 6.78054 19.5551 6.74124Z" fill="#181B20"/>
<path d="M19.5551 6.74124C19.5551 6.74124 19.4372 6.74124 19.3782 6.74124C19.0441 6.74124 18.7297 6.85914 18.4938 7.05565C18.3562 7.15391 18.199 7.25216 18.0614 7.37007C16.1747 9.09936 14.4452 11.7326 12.6568 13.6191C12.0868 14.2283 11.3596 14.8571 10.7307 15.3877C10.5539 15.5449 10.2197 15.5056 10.0232 15.3287C7.9203 13.3047 6.24977 11.1038 4.24513 9.04041C3.73414 8.50983 3.12488 7.68449 2.49598 7.17356C2.29944 6.9574 2.04395 6.81984 1.74915 6.76089C1.474 6.68228 1.21851 6.70193 0.963015 6.83949C0.550294 6.9967 0.23584 7.37007 0.11792 7.82204C0.0982668 7.86135 0.0786134 7.90065 0.0589601 7.9596L0 27.3945C0.0196534 27.8268 0.17688 28.1805 0.373414 28.436C0.628908 28.7504 1.02197 28.9666 1.474 28.9666C1.55262 28.9666 1.63123 28.9666 1.70984 28.9469C2.27979 28.8683 2.83008 28.4557 3.00696 27.6696V12.5186C3.2035 11.9684 4.26478 13.2261 4.46131 13.4422C5.91566 14.9947 7.74342 17.51 9.31569 18.7873C10.1411 19.4751 10.7111 19.4162 11.5169 18.7873C12.9123 17.7065 14.5435 15.427 15.821 14.0907C16.1551 13.7567 17.1574 12.6169 17.4718 12.44C17.7863 12.2435 17.9239 12.3418 17.9239 12.6955V27.8661C18.0614 28.2002 18.2383 28.436 18.4545 28.6129C18.6707 28.8094 18.9458 28.9273 19.2603 28.9469C19.2603 28.9469 19.2996 28.9469 19.3193 28.9469C19.3193 28.9469 19.3586 28.9469 19.3782 28.9469C20.125 28.9469 20.8326 28.3574 20.8326 27.2766V8.19541C20.7146 7.25216 20.184 6.78054 19.5551 6.74124Z" fill="#181B20"/>
<path d="M109.449 6.76089C108.919 6.83949 108.368 7.37007 108.27 7.881V22.4621C108.27 22.7372 107.897 22.5407 107.72 22.3049L97.2053 7.52728C96.3406 6.26961 94.5718 6.52507 94.3359 8.07751V27.6696C94.4735 29.2024 96.9302 29.5168 97.225 27.65L97.2643 13.4029C97.4412 13.0492 97.736 13.3047 97.8932 13.5405L108.565 28.4557C109.685 29.4186 111.179 28.9076 111.159 27.3552V8.39193C111.061 7.33077 110.609 6.58403 109.43 6.76089" fill="#181B20"/>
<path d="M109.449 6.76089C108.919 6.83949 108.368 7.37007 108.27 7.881V22.4621C108.27 22.7372 107.897 22.5407 107.72 22.3049L97.2053 7.52728C96.3406 6.26961 94.5718 6.52507 94.3359 8.07751V27.6696C94.4735 29.2024 96.9302 29.5168 97.225 27.65L97.2643 13.4029C97.4412 13.0492 97.736 13.3047 97.8932 13.5405L108.565 28.4557C109.685 29.4186 111.179 28.9076 111.159 27.3552V8.39193C111.061 7.33077 110.609 6.58403 109.43 6.76089" fill="#181B20"/>
<path d="M77.3753 6.68229C71.1845 6.68229 66.1729 11.6737 66.1729 17.8441C66.1729 24.0145 71.1845 29.0059 77.3753 29.0059C83.5661 29.0059 88.5777 24.0145 88.5777 17.8441C88.5777 11.6737 83.5661 6.68229 77.3753 6.68229ZM77.3556 26.0779C72.796 26.0779 69.1012 22.3835 69.1012 17.8441C69.1012 13.3047 72.796 9.61029 77.3556 9.61029C81.9152 9.61029 85.61 13.3047 85.61 17.8441C85.61 22.3835 81.9152 26.0779 77.3556 26.0779Z" fill="#181B20"/>
<path d="M77.3753 6.68229C71.1845 6.68229 66.1729 11.6737 66.1729 17.8441C66.1729 24.0145 71.1845 29.0059 77.3753 29.0059C83.5661 29.0059 88.5777 24.0145 88.5777 17.8441C88.5777 11.6737 83.5661 6.68229 77.3753 6.68229ZM77.3556 26.0779C72.796 26.0779 69.1012 22.3835 69.1012 17.8441C69.1012 13.3047 72.796 9.61029 77.3556 9.61029C81.9152 9.61029 85.61 13.3047 85.61 17.8441C85.61 22.3835 81.9152 26.0779 77.3556 26.0779Z" fill="#181B20"/>
<path d="M235.605 16.3703H221.572C220.806 16.3703 220.177 16.9991 220.177 17.7655C220.177 18.5319 220.806 19.1607 221.572 19.1607H235.605C236.371 19.1607 237 18.5319 237 17.7655C237 16.9991 236.371 16.3703 235.605 16.3703Z" fill="#181B20"/>
<path d="M235.605 16.3703H221.572C220.806 16.3703 220.177 16.9991 220.177 17.7655C220.177 18.5319 220.806 19.1607 221.572 19.1607H235.605C236.371 19.1607 237 18.5319 237 17.7655C237 16.9991 236.371 16.3703 235.605 16.3703Z" fill="#181B20"/>
<path d="M235.605 6.60368H221.572C220.806 6.60368 220.177 7.23251 220.177 7.99891C220.177 8.7653 220.806 9.39413 221.572 9.39413H235.605C236.371 9.39413 237 8.7653 237 7.99891C237 7.23251 236.371 6.60368 235.605 6.60368Z" fill="#181B20"/>
<path d="M235.605 6.60368H221.572C220.806 6.60368 220.177 7.23251 220.177 7.99891C220.177 8.7653 220.806 9.39413 221.572 9.39413H235.605C236.371 9.39413 237 8.7653 237 7.99891C237 7.23251 236.371 6.60368 235.605 6.60368Z" fill="#181B20"/>
<path d="M203.196 6.72159H195.571C194.863 6.72159 194.293 7.29147 194.293 7.99891C194.293 8.70634 194.863 9.27622 195.571 9.27622H203.196C207.972 9.27622 211.844 13.1868 211.765 17.9816C211.686 22.6782 207.775 26.4119 203.058 26.4119H195.551C194.843 26.4119 194.273 26.9818 194.273 27.6893C194.273 28.3967 194.843 28.9666 195.551 28.9666H203.039C209.171 28.9666 214.261 24.0735 214.32 17.9423C214.379 11.7523 209.367 6.70193 203.176 6.70193" fill="#181B20"/>
<path d="M203.196 6.72159H195.571C194.863 6.72159 194.293 7.29147 194.293 7.99891C194.293 8.70634 194.863 9.27622 195.571 9.27622H203.196C207.972 9.27622 211.844 13.1868 211.765 17.9816C211.686 22.6782 207.775 26.4119 203.058 26.4119H195.551C194.843 26.4119 194.273 26.9818 194.273 27.6893C194.273 28.3967 194.843 28.9666 195.551 28.9666H203.039C209.171 28.9666 214.261 24.0735 214.32 17.9423C214.379 11.7523 209.367 6.70193 203.176 6.70193" fill="#181B20"/>
<path d="M160.431 26.1565H147.794V8.13646C147.794 7.37007 147.165 6.74123 146.398 6.74123C145.632 6.74123 145.003 7.37007 145.003 8.13646V27.4338C145.003 27.4338 145.003 27.5124 145.003 27.5517C145.003 28.3181 145.632 28.9469 146.398 28.9469H160.431C161.197 28.9469 161.826 28.3181 161.826 27.5517C161.826 26.7853 161.197 26.1565 160.431 26.1565Z" fill="#181B20"/>
<path d="M160.431 26.1565H147.794V8.13646C147.794 7.37007 147.165 6.74123 146.398 6.74123C145.632 6.74123 145.003 7.37007 145.003 8.13646V27.4338C145.003 27.4338 145.003 27.5124 145.003 27.5517C145.003 28.3181 145.632 28.9469 146.398 28.9469H160.431C161.197 28.9469 161.826 28.3181 161.826 27.5517C161.826 26.7853 161.197 26.1565 160.431 26.1565Z" fill="#181B20"/>
<path d="M137.81 16.2916H128.199C127.354 16.2916 126.666 16.9794 126.646 17.8048C126.607 18.0799 126.666 18.355 126.863 18.6105C127.138 19.0624 127.629 19.3769 128.199 19.3769H135.942C136.218 19.4751 136.277 19.6716 136.159 20.1236C135.726 21.8136 134.016 23.8966 132.562 24.8202C125.231 29.3793 116.446 20.9883 121.124 13.5208C123.62 9.53168 128.926 8.39192 132.837 11.0448C133.112 11.2413 133.702 11.6933 133.957 11.9291C134.783 12.6955 134.881 13.6781 136.277 13.5208C137.259 13.4029 137.731 12.3221 137.338 11.4575C136.453 9.47273 132.405 7.23251 130.341 6.85914C120.456 5.05124 113.125 16.0362 119.06 24.3093C122.48 29.0648 128.73 30.3225 133.82 27.4731C136.866 25.7635 139.578 21.6367 139.362 18.0406C139.362 17.9816 139.362 17.9227 139.362 17.8637C139.362 16.9991 138.674 16.3113 137.81 16.3113" fill="#181B20"/>
<path d="M137.81 16.2916H128.199C127.354 16.2916 126.666 16.9794 126.646 17.8048C126.607 18.0799 126.666 18.355 126.863 18.6105C127.138 19.0624 127.629 19.3769 128.199 19.3769H135.942C136.218 19.4751 136.277 19.6716 136.159 20.1236C135.726 21.8136 134.016 23.8966 132.562 24.8202C125.231 29.3793 116.446 20.9883 121.124 13.5208C123.62 9.53168 128.926 8.39192 132.837 11.0448C133.112 11.2413 133.702 11.6933 133.957 11.9291C134.783 12.6955 134.881 13.6781 136.277 13.5208C137.259 13.4029 137.731 12.3221 137.338 11.4575C136.453 9.47273 132.405 7.23251 130.341 6.85914C120.456 5.05124 113.125 16.0362 119.06 24.3093C122.48 29.0648 128.73 30.3225 133.82 27.4731C136.866 25.7635 139.578 21.6367 139.362 18.0406C139.362 17.9816 139.362 17.9227 139.362 17.8637C139.362 16.9991 138.674 16.3113 137.81 16.3113" fill="#181B20"/>
<path d="M58.5471 20.1236H28.4774C27.7109 20.1236 27.082 20.7524 27.082 21.5188C27.082 22.2852 27.7109 22.9141 28.4774 22.9141H58.5471C59.3135 22.9141 59.9425 22.2852 59.9425 21.5188C59.9425 20.7524 59.3135 20.1236 58.5471 20.1236Z" fill="#181B20"/>
<path d="M58.5471 20.1236H28.4774C27.7109 20.1236 27.082 20.7524 27.082 21.5188C27.082 22.2852 27.7109 22.9141 28.4774 22.9141H58.5471C59.3135 22.9141 59.9425 22.2852 59.9425 21.5188C59.9425 20.7524 59.3135 20.1236 58.5471 20.1236Z" fill="#181B20"/>
<path d="M188.142 27.0211L179.376 7.52728C179.14 6.9967 178.61 6.68228 178.06 6.70193C177.509 6.70193 176.979 6.9967 176.743 7.52728L167.977 27.0211C167.663 27.7286 167.977 28.5539 168.685 28.8683C169.392 29.1827 170.218 28.8683 170.532 28.1609L178.06 11.4182L185.587 28.1609C185.901 28.8683 186.727 29.1827 187.434 28.8683C188.142 28.5539 188.456 27.7286 188.142 27.0211Z" fill="#181B20"/>
<path d="M188.142 27.0211L179.376 7.52728C179.14 6.9967 178.61 6.68228 178.06 6.70193C177.509 6.70193 176.979 6.9967 176.743 7.52728L167.977 27.0211C167.663 27.7286 167.977 28.5539 168.685 28.8683C169.392 29.1827 170.218 28.8683 170.532 28.1609L178.06 11.4182L185.587 28.1609C185.901 28.8683 186.727 29.1827 187.434 28.8683C188.142 28.5539 188.456 27.7286 188.142 27.0211Z" fill="#181B20"/>
</svg>
