<svg width="50" height="48" viewBox="0 0 50 48" fill="none" xmlns="http://www.w3.org/2000/svg">
<path d="M0.000943871 46.2844C-0.0230459 46.8362 0.404799 47.3029 0.956563 47.3269L9.94807 47.7179C10.4998 47.7419 10.9666 47.314 10.9906 46.7623C11.0146 46.2105 10.5867 45.7437 10.0349 45.7198L2.04249 45.3723L2.38999 37.3798C2.41398 36.828 1.98614 36.3613 1.43437 36.3373C0.882609 36.3133 0.415868 36.7412 0.391879 37.2929L0.000943871 46.2844ZM49.9991 2.37132C50.023 1.81955 49.5952 1.35281 49.0434 1.32883L40.0519 0.93789C39.5002 0.913902 39.0334 1.34175 39.0094 1.89351C38.9854 2.44527 39.4133 2.91202 39.9651 2.936L47.9575 3.2835L47.61 11.276C47.586 11.8277 48.0139 12.2945 48.5656 12.3184C49.1174 12.3424 49.5841 11.9146 49.6081 11.3628L49.9991 2.37132ZM1 46.3279L1.67572 47.065L49.6757 3.06504L49 2.32788L48.3243 1.59073L0.324275 45.5907L1 46.3279Z" fill="#181B20"/>
</svg>
