<svg width="49" height="66" viewBox="0 0 49 66" fill="none" xmlns="http://www.w3.org/2000/svg">
<path d="M24.0986 1C36.8554 1.00015 47.1963 11.3419 47.1963 24.0986C47.1962 27.1805 45.7833 31.2783 43.5361 35.7939C41.3059 40.2755 38.3223 45.039 35.3232 49.4092C32.3267 53.7757 29.3276 57.7307 27.0771 60.5957C25.9523 62.0277 25.0155 63.1867 24.3604 63.9863C24.2676 64.0995 24.1788 64.2042 24.0977 64.3027C24.0166 64.2043 23.9285 64.0993 23.8359 63.9863C23.1808 63.1867 22.2439 62.0277 21.1191 60.5957C18.8688 57.7308 15.8704 53.7755 12.874 49.4092C9.87496 45.039 6.89037 40.2755 4.66016 35.7939C2.41307 31.2784 1.00008 27.1805 1 24.0986C1 11.3418 11.3418 1 24.0986 1Z" stroke="#181B20" stroke-width="2"/>
<circle cx="24.0986" cy="24.0986" r="11.8525" stroke="#181B20" stroke-width="2"/>
</svg>
