<svg width="42" height="65" viewBox="0 0 42 65" fill="none" xmlns="http://www.w3.org/2000/svg">
<path d="M0 0L1.60626 1.07084C11.3033 1.07084 18.5017 2.40939 23.2015 5.08648C27.9013 7.70409 30.2512 11.2141 30.2512 15.6164C30.2512 19.6023 28.5855 23.1123 25.254 26.1463C21.9225 29.1209 17.2822 31.2625 11.333 32.5714C16.0328 32.8688 19.8105 33.9694 22.6661 35.8731C25.5812 37.7768 27.3956 40.7216 28.1095 44.7075L29.805 53.8097C30.2215 56.0108 30.7866 57.7956 31.5005 59.1639C32.2144 60.4727 33.315 61.1271 34.8023 61.1271C35.9921 61.1271 36.8845 60.4132 37.4794 58.9854C38.0743 57.4981 38.342 55.2969 38.2825 52.3819H39.978C40.0375 56.4273 39.4723 59.4613 38.2825 61.484C37.0927 63.4472 34.832 64.4288 31.5005 64.4288C28.5855 64.4288 26.2653 63.5662 24.5401 61.841C22.8743 60.0562 21.744 57.6171 21.1491 54.5236L19.4536 45.8676C18.9182 42.9525 18.2935 40.6324 17.5796 38.9071C16.8657 37.1224 15.7949 35.7839 14.3671 34.8915C12.9393 33.9991 10.8274 33.434 8.03129 33.196C7.13893 33.4935 6.36554 33.7612 5.71114 33.9991C5.05674 34.1776 4.40234 34.2668 3.74794 34.2668C2.32015 34.2668 1.60626 33.7909 1.60626 32.8391C1.60626 32.3631 1.81448 32.0062 2.23091 31.7682C2.64735 31.5303 3.09353 31.4113 3.56946 31.4113C4.34285 31.4113 5.08649 31.5005 5.80038 31.679C6.51427 31.798 7.34715 31.9764 8.299 32.2144C13.1773 31.0246 16.5683 29.0019 18.472 26.1463C20.3757 23.2313 21.3275 20.0485 21.3275 16.598C21.3275 11.8982 19.9295 8.26925 17.1334 5.71114C14.3373 3.09353 9.60781 1.78473 2.94481 1.78473H0V0ZM41.1381 8.92365V10.7084H0V8.92365H41.1381ZM40.9596 0V1.78473H0V0H40.9596Z" fill="#181B20"/>
</svg>
