<svg width="183" height="51" viewBox="0 0 183 51" fill="none" xmlns="http://www.w3.org/2000/svg">
<path d="M182.21 0V50.97" stroke="white" stroke-width="0.75" stroke-miterlimit="22.93"/>
<path d="M153.51 48.0602C153.11 48.0602 152.76 47.9602 152.48 47.7702C152.18 47.5802 151.99 47.3102 151.87 46.9702L152.24 46.7502C152.33 47.0302 152.48 47.2402 152.69 47.4002C152.91 47.5602 153.18 47.6302 153.53 47.6302C153.88 47.6302 154.11 47.5602 154.31 47.4102C154.49 47.2602 154.58 47.0702 154.58 46.8302C154.58 46.5902 154.51 46.4202 154.33 46.3002C154.17 46.1802 153.88 46.0602 153.49 45.9302C153.03 45.7802 152.73 45.6502 152.58 45.5602C152.24 45.3502 152.07 45.0602 152.07 44.6702C152.07 44.2802 152.19 43.9902 152.46 43.7702C152.73 43.5502 153.04 43.4402 153.43 43.4402C153.77 43.4402 154.09 43.5302 154.34 43.7102C154.59 43.8902 154.77 44.1202 154.91 44.4002L154.52 44.6102C154.33 44.1202 153.95 43.8702 153.43 43.8702C153.16 43.8702 152.94 43.9402 152.76 44.0702C152.6 44.2102 152.51 44.3902 152.51 44.6402C152.51 44.8602 152.6 45.0302 152.75 45.1402C152.9 45.2502 153.15 45.3602 153.5 45.4802C153.66 45.5402 153.78 45.5702 153.86 45.6002C153.92 45.6202 154.02 45.6602 154.16 45.7102C154.29 45.7602 154.4 45.8102 154.46 45.8502C154.52 45.8902 154.59 45.9502 154.68 46.0102C154.77 46.0802 154.84 46.1502 154.89 46.2202C154.92 46.2902 154.96 46.3802 154.99 46.4802C155.02 46.5802 155.03 46.6902 155.03 46.8002C155.03 47.1802 154.9 47.4802 154.61 47.7102C154.34 47.9402 153.98 48.0502 153.52 48.0502M147.91 47.5702H150.08V47.9902H147.46V43.5302H150.05V43.9502H147.91V45.5302H149.89V45.9502H147.91V47.5702ZM144.76 47.6302C144.46 47.9202 144.06 48.0602 143.56 48.0602C143.06 48.0602 142.68 47.9202 142.36 47.6302C142.06 47.3402 141.91 46.9502 141.91 46.4702V43.5202H142.34V46.4702C142.34 46.8302 142.46 47.1102 142.67 47.3202C142.88 47.5302 143.18 47.6302 143.55 47.6302C143.92 47.6302 144.24 47.5302 144.45 47.3202C144.66 47.1102 144.76 46.8302 144.76 46.4702V43.5202H145.21V46.4702C145.21 46.9502 145.06 47.3402 144.75 47.6302H144.76ZM138.08 47.5702H140.12V47.9902H137.63V43.5302H138.08V47.5702ZM135.31 47.9902L134.91 46.8902H132.78L132.38 47.9902H131.9L133.62 43.5302H134.07L135.79 47.9902H135.31ZM132.95 46.4702H134.75L133.85 44.0802L132.95 46.4702ZM128.65 47.9902L127 43.5302H127.48L128.87 47.4002L130.26 43.5302H130.75L129.1 47.9902H128.64H128.65ZM121.84 43.5202H122.29V47.9802H121.9L119.41 44.3502V47.9802H118.98V43.5202H119.35L121.84 47.1602V43.5202ZM116.27 47.3902C115.82 47.8402 115.27 48.0602 114.62 48.0602C113.97 48.0602 113.44 47.8402 112.99 47.3902C112.54 46.9402 112.32 46.4002 112.32 45.7502C112.32 45.1002 112.54 44.5602 112.99 44.1102C113.44 43.6602 113.98 43.4402 114.62 43.4402C115.26 43.4402 115.82 43.6602 116.27 44.1102C116.72 44.5602 116.93 45.1002 116.93 45.7502C116.93 46.4002 116.72 46.9402 116.27 47.3902ZM113.3 47.0802C113.66 47.4402 114.09 47.6302 114.62 47.6302C115.15 47.6302 115.59 47.4502 115.95 47.0802C116.31 46.7202 116.49 46.2702 116.49 45.7502C116.49 45.2302 116.31 44.7802 115.95 44.4202C115.59 44.0602 115.14 43.8702 114.62 43.8702C114.1 43.8702 113.66 44.0502 113.3 44.4202C112.94 44.7902 112.76 45.2302 112.76 45.7502C112.76 46.2702 112.94 46.7202 113.3 47.0802ZM106.96 43.5202H107.41V47.9802H107.04L104.55 44.3502V47.9802H104.1V43.5202H104.47L106.96 47.1602V43.5202ZM101.38 47.3902C100.93 47.8402 100.39 48.0602 99.7499 48.0602C99.1099 48.0602 98.5499 47.8402 98.0999 47.3902C97.6499 46.9402 97.4299 46.4002 97.4299 45.7502C97.4299 45.1002 97.6499 44.5602 98.0999 44.1102C98.5499 43.6602 99.0899 43.4402 99.7499 43.4402C100.41 43.4402 100.93 43.6602 101.38 44.1102C101.83 44.5602 102.05 45.1002 102.05 45.7502C102.05 46.4002 101.83 46.9402 101.38 47.3902ZM98.4199 47.0802C98.7799 47.4402 99.2099 47.6302 99.7499 47.6302C100.29 47.6302 100.71 47.4502 101.07 47.0802C101.43 46.7202 101.61 46.2702 101.61 45.7502C101.61 45.2302 101.43 44.7802 101.07 44.4202C100.71 44.0602 100.28 43.8702 99.7499 43.8702C99.2199 43.8702 98.7799 44.0502 98.4199 44.4202C98.0599 44.7902 97.8799 45.2302 97.8799 45.7502C97.8799 46.2702 98.0599 46.7202 98.4199 47.0802ZM94.9499 47.9902H95.3999V43.5302H94.9499V47.9902ZM93.0399 43.5202V43.9402H91.6599V47.9802H91.2099V43.9402H89.8499V43.5202H93.0399ZM88.2199 47.9902L87.8199 46.8902H85.6899L85.2899 47.9902H84.8099L86.5299 43.5302H86.9899L88.6999 47.9902H88.2199ZM85.8599 46.4702H87.6599L86.7599 44.0802L85.8599 46.4702ZM81.2799 43.5202C81.8899 43.5202 82.3899 43.7402 82.7899 44.1702C83.1799 44.6002 83.3699 45.1302 83.3699 45.7602C83.3699 46.3902 83.1799 46.9102 82.7899 47.3402C82.3899 47.7702 81.8899 47.9902 81.2799 47.9902H79.5599V43.5302H81.2799V43.5202ZM81.2799 47.5702C81.7699 47.5702 82.1599 47.4002 82.4799 47.0502C82.7899 46.7002 82.9599 46.2702 82.9599 45.7602C82.9599 45.2502 82.7999 44.8202 82.4799 44.4702C82.1699 44.1202 81.7799 43.9502 81.2799 43.9502H80.0099V47.5702H81.2799ZM76.8099 43.5202H77.2599V47.9802H76.8699L74.3799 44.3502V47.9802H73.9299V43.5202H74.3199L76.8099 47.1602V43.5202ZM71.2599 47.6302C70.9499 47.9202 70.5599 48.0602 70.0599 48.0602C69.5599 48.0602 69.1599 47.9202 68.8599 47.6302C68.5499 47.3402 68.3999 46.9502 68.3999 46.4702V43.5202H68.8499V46.4702C68.8499 46.8302 68.9499 47.1102 69.1599 47.3202C69.3699 47.5302 69.6699 47.6302 70.0599 47.6302C70.4499 47.6302 70.7299 47.5302 70.9399 47.3202C71.1499 47.1102 71.2699 46.8302 71.2699 46.4702V43.5202H71.6999V46.4702C71.6999 46.9502 71.5499 47.3402 71.2499 47.6302H71.2599ZM65.7799 47.3902C65.3499 47.8402 64.7899 48.0602 64.1499 48.0602C63.5099 48.0602 62.9499 47.8402 62.4999 47.3902C62.0699 46.9402 61.8399 46.4002 61.8399 45.7502C61.8399 45.1002 62.0599 44.5602 62.4999 44.1102C62.9499 43.6602 63.4999 43.4402 64.1499 43.4402C64.7999 43.4402 65.3499 43.6602 65.7799 44.1102C66.2299 44.5602 66.4499 45.1002 66.4499 45.7502C66.4499 46.4002 66.2299 46.9402 65.7799 47.3902ZM62.8099 47.0802C63.1699 47.4402 63.6199 47.6302 64.1399 47.6302C64.6599 47.6302 65.1099 47.4502 65.4599 47.0802C65.8199 46.7202 65.9999 46.2702 65.9999 45.7502C65.9999 45.2302 65.8199 44.7802 65.4599 44.4202C65.1199 44.0602 64.6699 43.8702 64.1399 43.8702C63.6099 43.8702 63.1699 44.0502 62.8099 44.4202C62.4499 44.7802 62.2899 45.2302 62.2899 45.7502C62.2899 46.2702 62.4499 46.7202 62.8099 47.0802ZM60.0599 43.9402H57.9799V45.5902H59.9599V46.0102H57.9799V47.9902H57.5299V43.5302H60.0599V43.9502V43.9402ZM152.47 28.4102H143.64L146.25 22.8002L148.56 27.7402H152.17L148.04 18.9702L146.26 15.1702L144.48 18.9702L136.54 35.8602H140.18L142.23 31.4602H150.3L152.35 35.8602H155.97L152.48 28.4202L152.47 28.4102ZM67.8399 15.1602V16.7402L80.8399 35.8802L84.8099 35.8602L70.6599 15.1702H67.8399V15.1602ZM125.1 27.9102L125.01 27.7902C124.28 28.0602 123.48 28.1702 122.27 28.1702H121.39L126.17 35.2402C126.17 35.2402 126.2 35.2702 126.2 35.2902L126.59 35.8702H127.19C127.19 35.8702 127.23 35.8702 127.26 35.8702H129.45C129.52 35.8702 129.58 35.8702 129.66 35.8502H130.57L129.31 34.1102L125.1 27.9102ZM129.18 21.3802C129.18 16.5902 125.2 15.1602 121.84 15.1602H118.1V18.1502H121.69C124.22 18.1502 125.73 19.1302 125.73 21.3802C125.73 23.2402 124.76 24.6902 121.69 24.6902H118.1V27.6802H121.84C125.28 27.6802 129.18 26.1702 129.18 21.3802ZM114.02 33.8202V35.8602H117.58V15.1602H114.02V33.8202ZM105.77 23.9202H96.2499V26.9702H106.69V23.9202H105.81C105.81 23.9202 105.8 23.9202 105.78 23.9202H105.77ZM92.1899 35.8802H95.7499V15.1602H92.1899V35.8802ZM106.04 15.1602H96.2499V18.2402H106.69V15.1602H106.05H106.04ZM67.8399 35.8802H71.3999V23.1002L67.8399 17.8202V35.8802ZM84.7799 15.1602H81.2199V29.6702L84.7799 34.8502V15.1602ZM59.8599 15.1602H56.9099V35.8802H60.4699V15.1602H59.8699C59.8699 15.1602 59.8699 15.1602 59.8599 15.1602ZM51.0299 26.6102V23.6602H43.3599V27.2302H50.7999C50.9599 27.2302 51.0199 27.1102 51.0199 26.6102H51.0299Z" fill="white"/>
<path d="M7.1 40.5504V2.94043H5.27V21.8204H4.43V6.57043H2.65V21.8304H1.78V10.6004H0V47.9904H37.1V40.5504H7.1ZM9.12 2.94043V10.5904H29.84V21.8204H15.14V29.4704H37.11V2.94043H9.12Z" fill="#DEB94F"/>
</svg>
