<svg width="183" height="51" viewBox="0 0 183 51" fill="none" xmlns="http://www.w3.org/2000/svg">
<path d="M182.21 0V50.97" stroke="#181B20" stroke-width="0.75" stroke-miterlimit="22.93"/>
<path d="M153.51 48.06C153.11 48.06 152.76 47.96 152.48 47.77C152.18 47.58 151.99 47.31 151.87 46.97L152.24 46.75C152.33 47.03 152.48 47.24 152.69 47.4C152.91 47.56 153.18 47.63 153.53 47.63C153.88 47.63 154.11 47.56 154.31 47.41C154.49 47.26 154.58 47.07 154.58 46.83C154.58 46.59 154.51 46.42 154.33 46.3C154.17 46.18 153.88 46.06 153.49 45.93C153.03 45.78 152.73 45.65 152.58 45.56C152.24 45.35 152.07 45.06 152.07 44.67C152.07 44.28 152.19 43.99 152.46 43.77C152.73 43.55 153.04 43.44 153.43 43.44C153.77 43.44 154.09 43.53 154.34 43.71C154.59 43.89 154.77 44.12 154.91 44.4L154.52 44.61C154.33 44.12 153.95 43.87 153.43 43.87C153.16 43.87 152.94 43.94 152.76 44.07C152.6 44.21 152.51 44.39 152.51 44.64C152.51 44.86 152.6 45.03 152.75 45.14C152.9 45.25 153.15 45.36 153.5 45.48C153.66 45.54 153.78 45.57 153.86 45.6C153.92 45.62 154.02 45.66 154.16 45.71C154.29 45.76 154.4 45.81 154.46 45.85C154.52 45.89 154.59 45.95 154.68 46.01C154.77 46.08 154.84 46.15 154.89 46.22C154.92 46.29 154.96 46.38 154.99 46.48C155.02 46.58 155.03 46.69 155.03 46.8C155.03 47.18 154.9 47.48 154.61 47.71C154.34 47.94 153.98 48.05 153.52 48.05M147.91 47.57H150.08V47.99H147.46V43.53H150.05V43.95H147.91V45.53H149.89V45.95H147.91V47.57ZM144.76 47.63C144.46 47.92 144.06 48.06 143.56 48.06C143.06 48.06 142.68 47.92 142.36 47.63C142.06 47.34 141.91 46.95 141.91 46.47V43.52H142.34V46.47C142.34 46.83 142.46 47.11 142.67 47.32C142.88 47.53 143.18 47.63 143.55 47.63C143.92 47.63 144.24 47.53 144.45 47.32C144.66 47.11 144.76 46.83 144.76 46.47V43.52H145.21V46.47C145.21 46.95 145.06 47.34 144.75 47.63H144.76ZM138.08 47.57H140.12V47.99H137.63V43.53H138.08V47.57ZM135.31 47.99L134.91 46.89H132.78L132.38 47.99H131.9L133.62 43.53H134.07L135.79 47.99H135.31ZM132.95 46.47H134.75L133.85 44.08L132.95 46.47ZM128.65 47.99L127 43.53H127.48L128.87 47.4L130.26 43.53H130.75L129.1 47.99H128.64H128.65ZM121.84 43.52H122.29V47.98H121.9L119.41 44.35V47.98H118.98V43.52H119.35L121.84 47.16V43.52ZM116.27 47.39C115.82 47.84 115.27 48.06 114.62 48.06C113.97 48.06 113.44 47.84 112.99 47.39C112.54 46.94 112.32 46.4 112.32 45.75C112.32 45.1 112.54 44.56 112.99 44.11C113.44 43.66 113.98 43.44 114.62 43.44C115.26 43.44 115.82 43.66 116.27 44.11C116.72 44.56 116.93 45.1 116.93 45.75C116.93 46.4 116.72 46.94 116.27 47.39ZM113.3 47.08C113.66 47.44 114.09 47.63 114.62 47.63C115.15 47.63 115.59 47.45 115.95 47.08C116.31 46.72 116.49 46.27 116.49 45.75C116.49 45.23 116.31 44.78 115.95 44.42C115.59 44.06 115.14 43.87 114.62 43.87C114.1 43.87 113.66 44.05 113.3 44.42C112.94 44.79 112.76 45.23 112.76 45.75C112.76 46.27 112.94 46.72 113.3 47.08ZM106.96 43.52H107.41V47.98H107.04L104.55 44.35V47.98H104.1V43.52H104.47L106.96 47.16V43.52ZM101.38 47.39C100.93 47.84 100.39 48.06 99.7499 48.06C99.1099 48.06 98.5499 47.84 98.0999 47.39C97.6499 46.94 97.4299 46.4 97.4299 45.75C97.4299 45.1 97.6499 44.56 98.0999 44.11C98.5499 43.66 99.0899 43.44 99.7499 43.44C100.41 43.44 100.93 43.66 101.38 44.11C101.83 44.56 102.05 45.1 102.05 45.75C102.05 46.4 101.83 46.94 101.38 47.39ZM98.4199 47.08C98.7799 47.44 99.2099 47.63 99.7499 47.63C100.29 47.63 100.71 47.45 101.07 47.08C101.43 46.72 101.61 46.27 101.61 45.75C101.61 45.23 101.43 44.78 101.07 44.42C100.71 44.06 100.28 43.87 99.7499 43.87C99.2199 43.87 98.7799 44.05 98.4199 44.42C98.0599 44.79 97.8799 45.23 97.8799 45.75C97.8799 46.27 98.0599 46.72 98.4199 47.08ZM94.9499 47.99H95.3999V43.53H94.9499V47.99ZM93.0399 43.52V43.94H91.6599V47.98H91.2099V43.94H89.8499V43.52H93.0399ZM88.2199 47.99L87.8199 46.89H85.6899L85.2899 47.99H84.8099L86.5299 43.53H86.9899L88.6999 47.99H88.2199ZM85.8599 46.47H87.6599L86.7599 44.08L85.8599 46.47ZM81.2799 43.52C81.8899 43.52 82.3899 43.74 82.7899 44.17C83.1799 44.6 83.3699 45.13 83.3699 45.76C83.3699 46.39 83.1799 46.91 82.7899 47.34C82.3899 47.77 81.8899 47.99 81.2799 47.99H79.5599V43.53H81.2799V43.52ZM81.2799 47.57C81.7699 47.57 82.1599 47.4 82.4799 47.05C82.7899 46.7 82.9599 46.27 82.9599 45.76C82.9599 45.25 82.7999 44.82 82.4799 44.47C82.1699 44.12 81.7799 43.95 81.2799 43.95H80.0099V47.57H81.2799ZM76.8099 43.52H77.2599V47.98H76.8699L74.3799 44.35V47.98H73.9299V43.52H74.3199L76.8099 47.16V43.52ZM71.2599 47.63C70.9499 47.92 70.5599 48.06 70.0599 48.06C69.5599 48.06 69.1599 47.92 68.8599 47.63C68.5499 47.34 68.3999 46.95 68.3999 46.47V43.52H68.8499V46.47C68.8499 46.83 68.9499 47.11 69.1599 47.32C69.3699 47.53 69.6699 47.63 70.0599 47.63C70.4499 47.63 70.7299 47.53 70.9399 47.32C71.1499 47.11 71.2699 46.83 71.2699 46.47V43.52H71.6999V46.47C71.6999 46.95 71.5499 47.34 71.2499 47.63H71.2599ZM65.7799 47.39C65.3499 47.84 64.7899 48.06 64.1499 48.06C63.5099 48.06 62.9499 47.84 62.4999 47.39C62.0699 46.94 61.8399 46.4 61.8399 45.75C61.8399 45.1 62.0599 44.56 62.4999 44.11C62.9499 43.66 63.4999 43.44 64.1499 43.44C64.7999 43.44 65.3499 43.66 65.7799 44.11C66.2299 44.56 66.4499 45.1 66.4499 45.75C66.4499 46.4 66.2299 46.94 65.7799 47.39ZM62.8099 47.08C63.1699 47.44 63.6199 47.63 64.1399 47.63C64.6599 47.63 65.1099 47.45 65.4599 47.08C65.8199 46.72 65.9999 46.27 65.9999 45.75C65.9999 45.23 65.8199 44.78 65.4599 44.42C65.1199 44.06 64.6699 43.87 64.1399 43.87C63.6099 43.87 63.1699 44.05 62.8099 44.42C62.4499 44.78 62.2899 45.23 62.2899 45.75C62.2899 46.27 62.4499 46.72 62.8099 47.08ZM60.0599 43.94H57.9799V45.59H59.9599V46.01H57.9799V47.99H57.5299V43.53H60.0599V43.95V43.94ZM152.47 28.41H143.64L146.25 22.8L148.56 27.74H152.17L148.04 18.97L146.26 15.17L144.48 18.97L136.54 35.86H140.18L142.23 31.46H150.3L152.35 35.86H155.97L152.48 28.42L152.47 28.41ZM67.8399 15.16V16.74L80.8399 35.88L84.8099 35.86L70.6599 15.17H67.8399V15.16ZM125.1 27.91L125.01 27.79C124.28 28.06 123.48 28.17 122.27 28.17H121.39L126.17 35.24C126.17 35.24 126.2 35.27 126.2 35.29L126.59 35.87H127.19C127.19 35.87 127.23 35.87 127.26 35.87H129.45C129.52 35.87 129.58 35.87 129.66 35.85H130.57L129.31 34.11L125.1 27.91ZM129.18 21.38C129.18 16.59 125.2 15.16 121.84 15.16H118.1V18.15H121.69C124.22 18.15 125.73 19.13 125.73 21.38C125.73 23.24 124.76 24.69 121.69 24.69H118.1V27.68H121.84C125.28 27.68 129.18 26.17 129.18 21.38ZM114.02 33.82V35.86H117.58V15.16H114.02V33.82ZM105.77 23.92H96.2499V26.97H106.69V23.92H105.81C105.81 23.92 105.8 23.92 105.78 23.92H105.77ZM92.1899 35.88H95.7499V15.16H92.1899V35.88ZM106.04 15.16H96.2499V18.24H106.69V15.16H106.05H106.04ZM67.8399 35.88H71.3999V23.1L67.8399 17.82V35.88ZM84.7799 15.16H81.2199V29.67L84.7799 34.85V15.16ZM59.8599 15.16H56.9099V35.88H60.4699V15.16H59.8699C59.8699 15.16 59.8699 15.16 59.8599 15.16ZM51.0299 26.61V23.66H43.3599V27.23H50.7999C50.9599 27.23 51.0199 27.11 51.0199 26.61H51.0299Z" fill="black"/>
<path d="M7.1 40.55V2.94H5.27V21.82H4.43V6.57H2.65V21.83H1.78V10.6H0V47.99H37.1V40.55H7.1ZM9.12 2.94V10.59H29.84V21.82H15.14V29.47H37.11V2.94H9.12Z" fill="#DEB94F"/>
</svg>
