<svg width="17" height="17" viewBox="0 0 17 17" fill="none" xmlns="http://www.w3.org/2000/svg">
<path d="M8.24093 5.84473C6.89272 5.84473 5.7959 6.94155 5.7959 8.28976C5.7959 9.63796 6.89272 10.7348 8.24093 10.7348C9.58913 10.7348 10.686 9.63796 10.686 8.28976C10.686 6.94155 9.58913 5.84473 8.24093 5.84473Z" fill="white"/>
<path d="M11.631 0.0908203H4.85084C2.22198 0.0908203 0.0908203 2.22198 0.0908203 4.85084V11.6312C0.0908203 14.2599 2.22198 16.391 4.85084 16.391H11.6312C14.2599 16.391 16.391 14.2599 16.391 11.631V4.85084C16.391 2.22198 14.2599 0.0908203 11.631 0.0908203ZM8.24092 12.5295C5.90311 12.5295 4.00124 10.6276 4.00124 8.29C4.00124 5.95219 5.90311 4.05032 8.24092 4.05032C10.5785 4.05032 12.4804 5.95219 12.4804 8.29C12.4804 10.6276 10.5785 12.5295 8.24092 12.5295ZM12.5735 4.06119C12.0735 4.06119 11.6679 3.65567 11.6679 3.15562C11.6679 2.65557 12.0735 2.25005 12.5735 2.25005C13.0736 2.25005 13.4791 2.65557 13.4791 3.15562C13.4791 3.65567 13.0736 4.06119 12.5735 4.06119Z" fill="white"/>
</svg>
