<svg width="108" height="51" viewBox="0 0 108 51" fill="none" xmlns="http://www.w3.org/2000/svg">
<path d="M0.490234 30.5903L9.33023 25.4503V15.4103L18.0402 10.3903V0.0703125L0.490234 10.1903V30.5903Z" fill="white"/>
<path d="M18.04 30.3902V20.4302L26.72 15.4902V25.4102L18.04 30.3902Z" fill="white"/>
<path d="M18.04 50.8108V40.8808L35.75 30.5908V10.3808L44.37 5.30078V35.6708L18.04 50.8108Z" fill="white"/>
<path d="M63.6202 14.8203H55.4902V37.1903H63.6202V14.8203Z" fill="white"/>
<path d="M63.6202 4.62012H55.4902V12.7501H63.6202V4.62012Z" fill="white"/>
<path d="M81.2802 14.8205C81.2802 14.8205 78.0802 14.6405 76.2902 16.7205V14.8205H68.1602V37.1905H76.2902V26.3605C76.2902 26.1905 76.3402 21.5105 81.1902 21.5105H85.7701V14.8105H81.2802V14.8205Z" fill="white"/>
<path d="M97.8103 14.8203C88.5503 14.8203 88.3403 20.5003 88.3403 22.8103H94.3403C94.3403 22.8103 93.9003 19.9203 96.9703 19.9203C100.04 19.9203 99.7703 22.3303 99.7703 24.2103C99.7703 24.2103 87.5503 22.6803 87.6703 31.5703C87.7903 39.8903 98.4203 38.6203 100.12 34.4003V37.2303H106.58V22.4803C106.58 22.4803 107.05 14.8303 97.7903 14.8303L97.8103 14.8203ZM96.9803 32.4003C94.7203 32.4003 94.5203 30.8203 94.5203 30.2003C94.5203 29.5803 94.7203 28.0003 97.3703 28.0003H99.7103C99.7103 28.0003 100.47 32.4003 96.9803 32.4003Z" fill="white"/>
<path d="M104.64 46.87V43.01H105.42L106.2 45.09C106.23 45.16 106.26 45.26 106.3 45.4C106.33 45.54 106.37 45.7 106.43 45.89C106.39 45.62 106.36 45.37 106.34 45.14C106.33 44.91 106.31 44.7 106.31 44.5V43.02H107.03V46.88H106.31L105.47 44.72C105.47 44.72 105.41 44.56 105.35 44.33C105.32 44.23 105.31 44.14 105.29 44.08C105.3 44.23 105.32 44.4 105.32 44.59C105.33 44.78 105.33 45 105.33 45.26V46.88H104.63L104.64 46.87ZM103.78 44.99C103.78 45.58 103.66 46.04 103.42 46.39C103.17 46.74 102.84 46.91 102.43 46.91C102 46.91 101.67 46.74 101.43 46.39C101.19 46.04 101.07 45.56 101.07 44.94C101.07 44.32 101.19 43.84 101.43 43.49C101.68 43.14 102.01 42.96 102.43 42.96C102.85 42.96 103.18 43.14 103.42 43.5C103.66 43.86 103.78 44.36 103.78 45V44.99ZM102.43 46.18C102.62 46.18 102.77 46.08 102.86 45.87C102.96 45.66 103.01 45.35 103.01 44.94C103.01 44.53 102.97 44.21 102.86 44C102.77 43.79 102.62 43.69 102.43 43.69C102.22 43.69 102.09 43.79 101.98 44C101.89 44.21 101.85 44.52 101.85 44.94C101.85 45.36 101.89 45.67 101.98 45.87C102.08 46.08 102.22 46.18 102.43 46.18ZM99.39 46.87V43.01H100.17V46.87H99.39ZM97.22 46.87V43.73H96.64V43.02H98.59V43.73H98.01V46.87H97.23H97.22ZM95.89 43.01V45.43C95.89 45.73 95.89 45.94 95.88 46.06C95.85 46.18 95.82 46.29 95.79 46.37C95.69 46.56 95.55 46.69 95.39 46.78C95.21 46.87 94.99 46.91 94.7 46.91C94.41 46.91 94.19 46.87 94.01 46.78C93.83 46.69 93.7 46.56 93.61 46.37C93.57 46.29 93.54 46.18 93.52 46.06C93.51 45.93 93.49 45.73 93.49 45.43V43.01H94.27V45.49C94.27 45.8 94.3 46.01 94.36 46.1C94.42 46.19 94.54 46.24 94.7 46.24C94.86 46.24 94.98 46.19 95.04 46.1C95.1 46.01 95.13 45.81 95.13 45.49V43.01H95.89ZM91.17 46.87V43.01H91.93V46.11H92.81V46.86H91.16L91.17 46.87ZM90.32 44.99C90.32 45.58 90.19 46.04 89.95 46.39C89.71 46.74 89.38 46.91 88.96 46.91C88.54 46.91 88.2 46.74 87.97 46.39C87.73 46.04 87.61 45.56 87.61 44.94C87.61 44.32 87.73 43.84 87.97 43.49C88.21 43.14 88.54 42.96 88.96 42.96C89.38 42.96 89.71 43.14 89.96 43.5C90.2 43.86 90.32 44.36 90.32 45V44.99ZM88.95 46.18C89.14 46.18 89.29 46.08 89.4 45.87C89.49 45.66 89.53 45.35 89.53 44.94C89.53 44.53 89.49 44.21 89.4 44C89.3 43.79 89.15 43.69 88.95 43.69C88.75 43.69 88.61 43.79 88.52 44C88.42 44.21 88.37 44.52 88.37 44.94C88.37 45.36 88.41 45.67 88.52 45.87C88.61 46.08 88.76 46.18 88.95 46.18ZM85.4 46.87L84.31 43.01H85.09L85.54 44.76C85.58 44.93 85.63 45.11 85.66 45.31C85.69 45.5 85.7 45.71 85.73 45.92C85.73 45.72 85.76 45.53 85.79 45.34C85.82 45.15 85.85 44.96 85.89 44.78L86.34 43.02H87.13L86.04 46.88H85.4V46.87ZM82.18 46.87V43.01H83.8V43.72H82.93V44.5H83.72V45.21H82.93V46.11H83.8V46.86H82.18V46.87ZM79.31 46.87V43.01H80.12C80.55 43.01 80.87 43.1 81.08 43.27C81.27 43.44 81.38 43.72 81.38 44.1C81.38 44.37 81.32 44.6 81.22 44.76C81.13 44.93 80.97 45.04 80.77 45.11L81.5 46.87H80.69L80.06 45.28V46.87H79.31ZM80.06 44.68C80.06 44.68 80.09 44.68 80.1 44.68C80.11 44.68 80.13 44.68 80.14 44.68C80.3 44.68 80.42 44.63 80.51 44.54C80.6 44.45 80.64 44.31 80.64 44.13C80.64 43.95 80.6 43.81 80.52 43.73C80.45 43.65 80.31 43.6 80.15 43.6C80.12 43.6 80.11 43.6 80.09 43.6C80.08 43.6 80.06 43.6 80.05 43.6V44.67L80.06 44.68ZM74.61 46.87V43.01H76.24V43.72H75.36V44.5H76.15V45.21H75.36V46.11H76.24V46.86H74.61V46.87ZM71.24 46.87V43.01H72V44.44H72.85V43.01H73.61V46.87H72.85V45.19H72V46.87H71.24ZM69.1 46.87V43.73H68.52V43.02H70.47V43.73H69.89V46.87H69.11H69.1ZM63.18 46.87V43.01H63.96L64.74 45.09C64.77 45.16 64.8 45.26 64.84 45.4C64.87 45.54 64.91 45.7 64.97 45.89C64.93 45.62 64.9 45.37 64.88 45.14C64.87 44.91 64.85 44.7 64.85 44.5V43.02H65.57V46.88H64.85L64.01 44.72C64.01 44.72 63.95 44.56 63.89 44.33C63.86 44.23 63.85 44.14 63.83 44.08C63.84 44.23 63.86 44.4 63.86 44.59C63.87 44.78 63.87 45 63.87 45.26V46.88H63.17L63.18 46.87ZM61.37 46.87V43.01H62.15V46.87H61.37ZM60.47 44.99C60.47 45.58 60.35 46.04 60.1 46.39C59.86 46.74 59.53 46.91 59.11 46.91C58.69 46.91 58.36 46.74 58.12 46.39C57.88 46.04 57.76 45.56 57.76 44.94C57.76 44.32 57.88 43.84 58.12 43.49C58.36 43.14 58.69 42.96 59.11 42.96C59.53 42.96 59.87 43.14 60.11 43.5C60.35 43.86 60.47 44.36 60.47 45V44.99ZM59.11 46.18C59.3 46.18 59.45 46.08 59.56 45.87C59.65 45.66 59.71 45.35 59.71 44.94C59.71 44.53 59.65 44.21 59.56 44C59.46 43.79 59.31 43.69 59.11 43.69C58.91 43.69 58.77 43.79 58.68 44C58.58 44.21 58.53 44.52 58.53 44.94C58.53 45.36 58.57 45.67 58.68 45.87C58.77 46.08 58.92 46.18 59.11 46.18ZM55.52 46.83V46.13C55.58 46.16 55.62 46.19 55.68 46.2C55.72 46.22 55.77 46.22 55.8 46.22C55.93 46.22 56.02 46.17 56.07 46.08C56.12 45.99 56.14 45.74 56.14 45.35V43.01H56.92V45.7C56.92 45.96 56.91 46.16 56.88 46.28C56.85 46.4 56.81 46.5 56.73 46.59C56.66 46.7 56.55 46.78 56.42 46.84C56.3 46.9 56.15 46.93 55.99 46.93C55.9 46.93 55.81 46.93 55.74 46.91C55.67 46.9 55.59 46.87 55.53 46.84L55.52 46.83Z" fill="white"/>
</svg>
