<svg width="20" height="14" viewBox="0 0 20 14" fill="none" xmlns="http://www.w3.org/2000/svg">
<path d="M19.3826 2.60814C19.1609 1.77843 18.5073 1.12486 17.6776 0.903071C16.1737 0.5 10.1429 0.5 10.1429 0.5C10.1429 0.5 4.112 0.5 2.60814 0.903071C1.77843 1.12486 1.12486 1.77843 0.903071 2.60814C0.5 4.112 0.5 7.25 0.5 7.25C0.5 7.25 0.5 10.388 0.903071 11.8919C1.12486 12.7216 1.77843 13.3751 2.60814 13.5969C4.112 14 10.1429 14 10.1429 14C10.1429 14 16.1737 14 17.6776 13.5969C18.5073 13.3751 19.1609 12.7216 19.3826 11.8919C19.7857 10.388 19.7857 7.25 19.7857 7.25C19.7857 7.25 19.7857 4.112 19.3826 2.60814ZM8.21429 10.1429V4.35714L13.2247 7.25L8.21429 10.1429Z" fill="white"/>
</svg>
